<?xml version="1.0" standalone="no"?>
<!DOCTYPE svg PUBLIC "-//W3C//DTD SVG 1.1//EN" "http://www.w3.org/Graphics/SVG/1.1/DTD/svg11.dtd" >
<svg xmlns="http://www.w3.org/2000/svg">
<metadata>
This is a custom SVG webfont generated by Font Squirrel.
Copyright   : Copyright c  M Klein 2004 All rights reserved
</metadata>
<defs>
<font id="webfonteLt5ydiV" horiz-adv-x="1527" >
<font-face units-per-em="2048" ascent="1638" descent="-410" />
<missing-glyph horiz-adv-x="538" />
<glyph unicode=" "  horiz-adv-x="538" />
<glyph unicode="&#x09;" horiz-adv-x="538" />
<glyph unicode="&#xa0;" horiz-adv-x="538" />
<glyph unicode="!" horiz-adv-x="303" d="M197 205v1225l-17 16h-59l-15 -16v-1225l15 -17h59zM201 16v74l-13 14h-73l-13 -14v-74l13 -14h73z" />
<glyph unicode="&#x22;" horiz-adv-x="464" d="M362 1436q0 16 -18 16h-53l-15 -16v-338l17 -17h37l16 17zM186 1436q4 16 -14 16h-53l-17 -16v-338l19 -17h37l16 17z" />
<glyph unicode="#" horiz-adv-x="1136" d="M1034 973v55l-16 14h-201l33 328q0 18 -16 19h-54l-16 -15l-29 -332h-289l29 328q0 18 -16 19h-53l-17 -15l-29 -332h-217l-16 -14v-55l16 -17h207q-6 -76 -11 -150.5t-13 -150.5h-207l-17 -16v-55l17 -15h196l-28 -338q2 -4 6 -10t10 -6h51l17 12l32 342h287l-31 -338 q2 -4 6.5 -10t10.5 -6h53l16 12q8 86 14.5 171t14.5 171h219l17 15v55l-17 16h-209l11.5 151t13.5 150h209zM725 956q-8 -76 -13 -150.5t-12 -150.5h-288q8 76 13 151t11 150h289z" />
<glyph unicode="$" horiz-adv-x="978" d="M877 387q0 115 -49.5 183.5t-124 111.5t-160.5 72.5t-161 65.5t-124 91.5t-49 149.5q0 70 20.5 116t58.5 73.5t91 38.5t117 11q61 0 121.5 -8t119.5 -26q14 -4 29.5 -11.5t32.5 -11.5l10 -2q6 0 9 6t3 10v62l-12 16q-63 23 -133 33t-135 12l14 138q0 18 -16 18h-50 l-16 -16q0 -35 2 -70t2 -70q-78 0 -143.5 -18.5t-112.5 -56t-72.5 -98t-25.5 -146.5q0 -115 49 -183.5t124 -111.5t161 -71.5t160.5 -64.5t124 -91.5t49.5 -151.5q0 -72 -29 -119t-75 -74.5t-104.5 -40t-117.5 -12.5q-68 0 -135.5 11.5t-130.5 35.5q-16 6 -36 18.5t-36 16.5 q-4 2 -12 2q-6 0 -9.5 -6t-3.5 -10v-76l11 -16q72 -27 151.5 -40.5t155.5 -15.5l-10 -157q0 -16 16 -17q12 0 39 -1t27 18q0 41 -4.5 78.5t-6.5 78.5q80 0 152 16.5t126 55.5t86 101.5t32 152.5z" />
<glyph unicode="%" horiz-adv-x="1206" d="M621 1182q0 129 -62.5 201.5t-196.5 72.5q-133 0 -196.5 -72.5t-63.5 -201.5q0 -123 67 -202t193 -79q127 0 193 80t66 201zM1085 1438q0 14 -16 14h-61l-13 -8l-56 -91l-109 -174l-142 -230l-157 -254l-154 -250l-134 -216l-93 -152q-35 -58 -35 -61q0 -16 16 -16h64 l12 8l56 91l109 174l142 230l157 255l153 250l133 216l94 153q34 59 34 61zM1104 268q0 129 -62.5 203t-195.5 74q-135 0 -197.5 -74t-62.5 -203q0 -123 66.5 -201.5t193.5 -78.5t192.5 79.5t65.5 200.5zM539 1182q0 -84 -43 -144.5t-134 -60.5q-90 0 -134 60.5t-44 144.5 q0 86 43 142t135 56t134.5 -56t42.5 -142zM1022 268q0 -82 -43 -143.5t-133 -61.5t-134 60.5t-44 144.5q0 86 43 143.5t135 57.5t134 -57.5t42 -143.5z" />
<glyph unicode="&#x26;" horiz-adv-x="1284" d="M1182 14q0 2 -27 36l-59 75l-63 78q-30 37 -36 47q20 37 41 86t38.5 101t28.5 102.5t11 91.5q0 16 -12 22t-25 6q-14 0 -26.5 -7t-12.5 -23q0 -80 -24.5 -172t-65.5 -162q-111 139 -205 295l-186 307l102.5 54.5t99.5 68.5t75.5 88t29.5 113q0 106 -67.5 170.5 t-171.5 64.5q-59 0 -111.5 -15.5t-91.5 -47t-61.5 -78.5t-22.5 -111q0 -76 29.5 -144.5t66.5 -131.5q-72 -41 -132 -89t-105 -107.5t-71 -131.5t-26 -158q0 -215 120 -334.5t335 -119.5q115 0 217.5 50t173.5 140l69 -90q34 -45 73 -86l75 -2q17 0 17 14zM782 1221 q0 -47 -27.5 -86t-68.5 -71t-87 -56l-83 -43q-33 51 -60.5 114.5t-27.5 124.5q0 86 59.5 131t139.5 45q68 0 111.5 -46.5t43.5 -112.5zM899 238q-59 -80 -150.5 -127.5t-191.5 -47.5q-86 0 -153.5 28t-114.5 79t-71.5 119.5t-24.5 152.5q0 68 22.5 131.5t61 117.5t91 96 t111.5 71l204 -315z" />
<glyph unicode="'" horiz-adv-x="292" d="M190 1436q0 16 -18 16h-53l-17 -16v-338l19 -17h37l16 17z" />
<glyph unicode="(" horiz-adv-x="503" d="M401 18q0 4 -2 5v4q-12 41 -38.5 84t-43.5 84q-59 139 -90.5 285.5t-31.5 297.5q0 141 31.5 279.5t84.5 271.5q18 47 46 94t42 95v4q2 0 2 4q0 10 -19.5 22.5t-29.5 16.5l-22 -4q-55 -78 -97.5 -175.5t-72 -201t-44 -208t-14.5 -198.5t14.5 -200.5t43 -212t71.5 -205 t99 -176.5l22 -4q10 4 29.5 16t19.5 22z" />
<glyph unicode=")" horiz-adv-x="503" d="M401 778q0 94 -15 198.5t-44 208t-72 201t-98 175.5l-22 4q-8 -4 -28 -16.5t-20 -22.5v-8q16 -47 44 -95.5t47 -93.5q53 -133 84.5 -271t31.5 -280q0 -152 -32.5 -298t-90.5 -285q-16 -41 -43.5 -84t-40.5 -84v-9q0 -10 19.5 -22t30.5 -16l22 4q55 78 97 177t72 204.5 t44 212t14 200.5z" />
<glyph unicode="*" horiz-adv-x="929" d="M827 1341l-39 66l-12 4q-76 -41 -140 -85l-134 -93q4 47 13 101.5t9 101.5v118l-10 9h-74l-10 -9v-118q0 -51 5 -103.5t9 -103.5l-139 97q-72 48 -147 85l-13 -2l-41 -68l5 -12q78 -43 156.5 -79t160.5 -68q-80 -29 -163 -63t-154 -79l-7 -10l45 -76l13 -4q76 43 144 88 l140 95q-4 -51 -10 -103.5t-6 -101.5l2 -146l10 -10h74l10 10v146q0 49 -9 101t-13 101q61 -49 129.5 -96t140.5 -82l12 4l41 68l-4 10q-74 45 -148 79l-153 69l154 70q76 36 149 77z" />
<glyph unicode="+" horiz-adv-x="835" d="M733 741v47l-14 17l-262 -2l2 262l-17 16h-49l-16 -16l2 -262l-262 2l-15 -17v-47l15 -16l262 2l-2 -262l16 -16h49l17 16l-2 262l262 -2z" />
<glyph unicode="," horiz-adv-x="407" d="M305 213q0 12 -16 12h-72l-16 -10l-11 -31l-19 -58l-23 -72l-21 -69l-17 -54q-7 -22 -8 -23q0 -16 19 -17h37l12 11q4 10 26 59l46 104l44 99q19 45 19 49z" />
<glyph unicode="-" horiz-adv-x="641" d="M539 641v47l-19 17h-401l-17 -17v-47l19 -16h401z" />
<glyph unicode="." horiz-adv-x="333" d="M231 4v98l-18 17h-94l-17 -17v-98l19 -16h94z" />
<glyph unicode="/" horiz-adv-x="817" d="M715 1430q0 16 -19 16h-59l-14 -10q-6 -18 -32 -89l-64 -173l-84 -228l-93 -254l-92 -250l-80 -215l-55 -151q-20 -57 -21 -60q0 -16 19 -16h61l15 10l31 89l64 174l84 229l93 253l91 249l79 215l55 151q21 58 21 60z" />
<glyph unicode="0" horiz-adv-x="1267" d="M1165 727q0 80 -13 165t-40 166t-70 153.5t-102 127t-136 86t-171 31.5t-171 -31.5t-135.5 -86t-101.5 -127t-69.5 -153.5t-40 -166t-13.5 -165q0 -123 29 -253t91.5 -238.5t163.5 -178t249 -69.5q141 0 242.5 70.5t165 180t93 239.5t29.5 249zM1075 727h-2 q0 -98 -22.5 -215t-73.5 -216t-136 -166t-208 -67t-207 67t-136 166t-74.5 216t-22.5 215q0 96 24.5 211t76.5 213t136 163.5t205 65.5q119 0 203 -65.5t136 -163.5t76.5 -213t24.5 -211z" />
<glyph unicode="1" horiz-adv-x="808" d="M707 14v47l-17 17h-174v1358l-16 16h-60l-325 -139l-11 -15q0 -4 -1 -13t0 -19.5t3.5 -18.5t8.5 -8q8 0 52 18l96 41l99 44l62 28v-1292h-176l-17 -17v-47l17 -16h442z" />
<glyph unicode="2" horiz-adv-x="1009" d="M907 16v299l-16 17h-47l-17 -19v-227q-70 -4 -139.5 -7t-138.5 -3q-84 0 -166 1t-166 1q49 61 116 137l139 161l144 175q72 90 128.5 181t91 179t34.5 168q0 104 -25.5 176t-75.5 116t-125 62.5t-173 18.5q-74 0 -149.5 -13.5t-147.5 -31.5l-12 -16q0 -4 -1 -16.5t0 -26 t3 -23.5t8 -10q14 0 46 9t73 19.5t87 19.5t91 9q147 0 230 -67.5t83 -225.5q0 -72 -36.5 -158.5t-97 -180t-135.5 -187.5t-151 -180l-144 -162l-116 -129v-66l17 -16h725h47z" />
<glyph unicode="3" horiz-adv-x="968" d="M866 387q0 76 -27.5 137.5t-73.5 107.5t-107.5 78.5t-129.5 51.5q49 16 100.5 51t94.5 82t70.5 100.5t27.5 106.5q0 90 -27.5 156.5t-78.5 110.5t-121 65.5t-156 21.5q-68 0 -139.5 -11t-136.5 -32l-12 -16q0 -6 -1.5 -20.5t0 -30t4.5 -26.5t9 -11q4 0 30.5 11t66.5 23.5 t87 23.5t94 11q63 0 116.5 -18.5t93.5 -54t62.5 -87t22.5 -116.5q0 -70 -36.5 -127t-94 -97t-125 -62.5t-131.5 -22.5l-16 -17v-47l18 -16q74 0 149.5 -19.5t137 -59.5t100.5 -101.5t39 -145.5q0 -78 -29.5 -137.5t-80 -100t-117 -62t-137.5 -21.5q-43 0 -92.5 11 t-92.5 23.5t-73.5 23.5t-36.5 11t-10.5 -6t-4.5 -10v-74l15 -16q72 -18 146.5 -29.5t150.5 -11.5q90 0 172 25.5t144.5 75.5t99 125t36.5 173z" />
<glyph unicode="4" horiz-adv-x="1202" d="M1100 473v47l-19 17h-223v903l-16 16h-60l-12 -6l-668 -930v-47l19 -16h651v-441l14 -16h58l16 16v441h223zM772 1313l-2 -776h-553l278 388z" />
<glyph unicode="5" horiz-adv-x="944" d="M842 403q0 217 -108.5 327t-327.5 110q-82 0 -164 -6q4 133 11 265t11 265q78 2 156 3t158 1q51 0 101 -1t101 -3q14 4 15 16q0 16 1 41t-20 31q-145 -10 -290.5 -9t-292.5 -1l-17 -17l-26 -665q0 -16 18 -17q59 0 118.5 9.5t121.5 9.5q170 0 257 -96.5t87 -262.5 q0 -82 -30 -145t-80 -106t-118.5 -66t-146.5 -23q-41 0 -84 10.5t-79 21.5t-62.5 21.5t-34.5 10.5q-6 0 -10.5 -6t-4.5 -10v-70l15 -16q61 -16 128.5 -26.5t133.5 -10.5q94 0 178 27.5t147.5 79.5t100.5 130t37 178z" />
<glyph unicode="6" horiz-adv-x="1120" d="M1018 449q0 432 -422 432q-109 0 -212 -48.5t-183 -119.5q12 115 60 231.5t126 210.5t183.5 153.5t234.5 59.5q16 0 32.5 -1t32.5 -3q4 2 10.5 6t6.5 10v54l-15 16l-67 2q-72 2 -140.5 -19.5t-129.5 -52.5q-115 -59 -197 -145t-134 -190.5t-77 -223.5t-25 -243 q0 -106 25 -212t79 -190t140 -136t209 -52q215 0 339 122t124 339zM928 449q0 -84 -25.5 -155t-75 -122t-118 -80t-154.5 -29q-94 0 -162.5 51.5t-112.5 128t-65.5 167t-21.5 168.5v22q8 2 20 14q76 78 173 131.5t210 53.5q170 0 251 -92t81 -258z" />
<glyph unicode="7" horiz-adv-x="1001" d="M899 1374v56l-16 16q-381 -4 -762 0l-12 -6l-7 -13v-237l17 -16h47l16 18v170q158 8 314 8h315l-35 -88l-65 -166l-85 -217l-95 -241l-93 -236l-79 -205l-55 -145q-22 -55 -21 -60q0 -6 6 -9t10 -3h57l13 10z" />
<glyph unicode="8" horiz-adv-x="1124" d="M1022 397q0 129 -59.5 232.5t-190.5 142.5q43 25 80 62.5t64.5 83t44 95.5t16.5 99q0 96 -33 161.5t-90 106.5t-132 58.5t-161 17.5q-84 0 -159.5 -17.5t-132 -58.5t-89.5 -106.5t-33 -161.5q0 -117 52.5 -206t162.5 -132q-55 -25 -102 -63.5t-82 -89t-55.5 -107.5 t-20.5 -117q0 -104 36 -182t97.5 -128t145.5 -74.5t182 -24.5q96 0 180 24.5t145.5 74.5t97.5 128t36 182zM887 1112h-2q0 -154 -71 -227.5t-230 -73.5q-74 0 -137.5 17.5t-109.5 54.5t-72.5 93t-26.5 136q0 74 25.5 125t69.5 83t103.5 46t126.5 14q68 0 127.5 -14 t102.5 -46t68.5 -83t25.5 -125zM932 397q0 -84 -27.5 -146.5t-77 -103.5t-118 -61t-148.5 -20t-147.5 20t-116.5 61t-76.5 103.5t-27.5 146.5q0 82 27.5 144.5t75.5 105.5t114.5 65.5t146.5 22.5q76 0 144.5 -22.5t119.5 -65.5t81 -105.5t30 -144.5z" />
<glyph unicode="9" horiz-adv-x="1120" d="M1018 930q0 117 -27.5 213t-84 165.5t-145.5 108.5t-212 39q-100 0 -182 -32.5t-140.5 -92t-91.5 -142.5t-33 -181q0 -92 25 -175t75 -144.5t124.5 -97.5t175.5 -36q111 0 218 43t198 109q-10 -102 -38 -216t-81.5 -209.5t-139.5 -159t-210 -63.5q-47 0 -92.5 13.5 t-86.5 13.5q-20 0 -20 -16v-58l12 -16q47 -12 93 -16.5t94 -4.5q121 0 210 45.5t151 121t103 173t63.5 204t32 213t9.5 198.5zM928 930v-60q0 -29 -2 -57l-11 -4q-23 -10 -41 -28.5t-40 -32.5q-74 -47 -158 -79t-174 -32q-80 0 -137.5 30.5t-96.5 83t-57 119t-18 138.5 q0 78 25.5 145.5t72.5 118.5t112.5 79.5t145.5 28.5q104 0 176 -34.5t117 -96t65.5 -143.5t20.5 -176z" />
<glyph unicode=":" horiz-adv-x="333" d="M231 643v98l-18 17h-94l-17 -17v-98l19 -16h94zM231 4v109l-18 16h-94l-17 -16v-109l19 -16h94z" />
<glyph unicode=";" horiz-adv-x="421" d="M319 643v98l-18 17h-96l-17 -17v-98l19 -16h96zM305 213q0 12 -16 12h-72l-16 -10l-11 -31l-19 -58l-23 -72l-21 -69l-17 -54q-7 -22 -8 -23q0 -16 19 -17h37l12 11q4 10 26 59l46 104l44 99q19 45 19 49z" />
<glyph unicode="&#x3c;" horiz-adv-x="862" d="M760 436q0 10 -8 17q-55 39 -125 79l-142 81l-143 78l-133 73l60 35l108 61l129 74l124 73l93 57q37 24 37 28q0 6 -11 23l-16 24q-6 6 -12 6t-49 -24l-107 -60l-137 -81l-140 -83l-116 -69l-61 -37l-9 -15v-20l9 -15q12 -8 61 -38l116 -69l139 -83l136 -80l107 -61 q43 -25 49 -25q4 0 11 7t13.5 15.5t11.5 16.5t5 12z" />
<glyph unicode="=" horiz-adv-x="835" d="M733 905v49l-14 17h-602l-15 -17v-49l15 -16h602zM733 575v50l-14 16h-602l-15 -16v-50l15 -16h602z" />
<glyph unicode="&#x3e;" horiz-adv-x="862" d="M760 756v20l-8 15l-63 37l-115 69l-140 83l-137 81l-108 60q-44 24 -48 24q-6 0 -12 -6l-15 -24q-11 -17 -12 -23q0 -6 9 -15q129 -86 268 -161l274 -152l-61 -34l-109 -60l-128 -74l-123 -73l-93 -57q-37 -24 -37 -28t6 -12l11 -17q6 -9 13 -16.5t11 -7.5t48 25l107 61 l136 80l140 83l115 69q48 30 63 38z" />
<glyph unicode="?" horiz-adv-x="944" d="M842 1008q0 98 -28 181t-82 142.5t-133 92t-181 32.5q-35 0 -75 -4t-82 -11t-80 -20.5t-68 -31.5l-9 -15q0 -6 -1 -19.5t0 -26.5t4.5 -24.5t11.5 -11.5q4 0 32.5 13.5t70.5 31t93.5 30.5t102.5 13q82 0 144.5 -28.5t104.5 -79.5t63.5 -119t21.5 -145q0 -86 -46.5 -162 t-116 -137.5t-151.5 -108.5t-153 -74l-11 -14v-307l17 -17q6 0 20.5 -1t26.5 -1q14 0 24.5 4.5t10.5 14.5q0 66 -3 132t-8 132q74 35 158 90t156 126t119 153t47 170zM369 16v74l-13 14h-73l-13 -14v-74l13 -14h73z" />
<glyph unicode="@" horiz-adv-x="1218" d="M1116 -6v672q0 88 -39 149.5t-101.5 98t-140 53t-153.5 16.5q-139 0 -246.5 -44t-181.5 -125t-113 -193.5t-39 -249.5q0 -145 42 -260t121 -196t192.5 -124t259.5 -43l10 14q0 4 1 17.5t-1 27t-6 23.5t-12 6q-123 0 -219.5 38t-163 107.5t-101.5 168t-35 221.5 q0 115 32 213t95.5 168.5t154.5 110.5t212 40q55 0 116.5 -12t114 -40t86 -73t33.5 -112v-54q-47 10 -96 17.5t-98 7.5q-84 0 -165 -14.5t-146.5 -52.5t-105.5 -102.5t-40 -162.5q0 -137 78 -225t219 -88q106 0 200.5 44t157.5 134l4 -176l17 -17h43zM1034 524h-2 q0 -92 -14 -174t-53 -143.5t-109 -97t-178 -35.5q-102 0 -154.5 66.5t-52.5 164.5q0 78 34 128t87 79t118.5 39t131.5 10q49 0 97 -10.5t95 -26.5z" />
<glyph unicode="A" horiz-adv-x="1329" d="M1227 12q0 6 -18 57l-44 125l-58 161l-60 166l-51 141l-29 81l-242 693l-16 10h-78l-15 -10l-71 -201l-105 -289l-116 -323l-109 -301l-81 -222q-32 -86 -32 -88q0 -6 7.5 -9t11.5 -3h57l17 10l100 280l100 279h541l201 -559l16 -10q4 0 16 -1q6 -1 13 -1l12 1 q12 1 22.5 4t10.5 9zM911 649h-489l250 686z" />
<glyph unicode="B" horiz-adv-x="927" d="M825 365q0 59 -13 116.5t-42 106.5t-73 87t-105 56q51 20 92 56t67.5 82t41 98.5t14.5 105.5q0 209 -107.5 294t-308.5 85q-135 0 -272 -6l-17 -16v-1414l19 -16q68 0 135.5 -6t136.5 -6q94 0 173 20.5t136.5 66.5t90 117t32.5 173zM721 1073h-2q0 -150 -84 -229.5 t-232 -79.5h-215v608l103 4q51 2 102 2q152 0 240 -72.5t88 -232.5zM739 365q0 -84 -24.5 -142.5t-70.5 -94.5t-109.5 -51.5t-143.5 -15.5q-51 0 -101 3.5l-102 7.5v616q53 0 108.5 1t109.5 1q154 0 243.5 -84.5t89.5 -240.5z" />
<glyph unicode="C" horiz-adv-x="1366" d="M1262 90q0 4 1 15q1 6 0.5 12t-0.5 12q-1 12 -4.5 21.5t-9.5 9.5t-10 -2l-218 -65q-105 -30 -226 -30q-152 0 -265.5 51.5t-188.5 142.5t-111.5 214t-36.5 266q0 152 34.5 271.5t107.5 202.5t186.5 126t273.5 43q113 0 209 -21.5t200 -58.5q4 -2 6 -1t7 1q12 0 12 15v63 l-10 13q-102 41 -209 53t-215 12q-360 0 -526.5 -185.5t-166.5 -533.5q0 -168 42 -306t128 -236.5t216 -152.5t307 -54q49 0 109.5 6t123 17.5t120.5 27.5t103 37z" />
<glyph unicode="D" horiz-adv-x="1380" d="M1278 737q0 190 -49 326.5t-146.5 222.5t-240 126t-328.5 40q-100 0 -198.5 -3t-198.5 -3l-15 -16v-1410l15 -16q109 -4 214 -10t214 -6q178 0 315 51t229.5 148.5t140.5 235.5t48 314zM1188 737q0 -152 -42 -275.5t-123 -211.5t-202 -136t-276 -48q-90 0 -178 3t-177 13 v1278q82 8 162 10t162 2q330 0 502 -148.5t172 -486.5z" />
<glyph unicode="E" horiz-adv-x="888" d="M784 10q0 8 1 22q1 7 1 13.5t-1 12.5q-1 13 -5 22.5t-14 9.5q-70 0 -139.5 -5t-139.5 -5h-141q-39 0 -78 1t-78 1v629h297q8 0 39 -2t64 -2q35 0 62.5 3t27.5 15v55l-16 17l-474 -6v575h297q66 0 128.5 -4t127.5 -4q16 0 17 16v56l-15 16h-626l-17 -16q1 -353 1 -706.5 t-1 -707.5l17 -16q164 0 324.5 -1t324.5 -5z" />
<glyph unicode="F" horiz-adv-x="833" d="M731 1376v54l-14 16h-600l-15 -16v-1414l15 -16h55l16 16v680l314 4q6 0 32.5 -3t56.5 -5t53.5 1t23.5 14q0 6 1 18t1 23q0 12 -4 21t-15 9h-463v584l271 2h63h96q49 0 99 -4z" />
<glyph unicode="G" horiz-adv-x="1361" d="M1260 88v625l-19 16h-401l-17 -16v-47l19 -17h332v-514q-92 -31 -186.5 -51.5t-192.5 -20.5q-154 0 -266.5 51.5t-187.5 142.5t-111.5 214t-36.5 266q0 152 34.5 270.5t108.5 201.5t188.5 127t272.5 44q115 0 209 -21.5t202 -58.5q4 -2 5 -1t6 1q12 0 12 15v63l-12 13 q-102 41 -208 53t-216 12q-358 0 -525.5 -186.5t-167.5 -532.5q0 -168 42 -306t128 -236.5t217.5 -152.5t307.5 -54q47 0 107.5 6t121.5 17.5t119.5 26.5t103.5 36z" />
<glyph unicode="H" horiz-adv-x="1325" d="M1223 16v1414l-19 16h-53l-16 -16v-619h-947v619l-16 16h-53l-17 -16v-1414l19 -16h53l16 16v715h947v-715l16 -16h53z" />
<glyph unicode="I" horiz-adv-x="638" d="M537 14v47l-17 17h-155v1352l-17 16h-55l-17 -16v-1352h-157l-17 -17v-47l17 -16h401z" />
<glyph unicode="J" horiz-adv-x="727" d="M625 207v1220l-19 17h-309l-16 -17v-47l18 -16l240 -2v-1165q0 -61 -10.5 -122t-37 -110t-74.5 -78.5t-122 -29.5q-31 0 -52.5 7t-42 17t-39 21.5t-42.5 19.5q-16 0 -17 -18l13 -72l8 -12q37 -20 84 -30.5t90 -10.5q96 0 159.5 35.5t100.5 95t52.5 136.5t15.5 161z" />
<glyph unicode="K" horiz-adv-x="964" d="M862 14q0 2 -41 53l-103 124l-137 163l-143 168l-119 140q-51 59 -65 77q10 14 55 71l107 132l129 161l125 157l95 120q38 49 38 52q0 14 -17 14h-71l-10 -6l-512 -654v644l-19 16h-55l-17 -16v-1414l19 -16h55l17 16v664l571 -674l12 -6q8 0 21.5 -1t25.5 -1 q14 0 24.5 3t14.5 13z" />
<glyph unicode="L" horiz-adv-x="864" d="M760 16q0 6 1 18.5t1 22.5q0 12 -4 21.5t-15 9.5q-63 0 -125.5 -4t-125.5 -4h-302v1350l-16 16h-57l-15 -16v-1414l15 -16h626z" />
<glyph unicode="M" horiz-adv-x="1677" d="M1575 16v1414l-19 16h-63l-14 -8l-658 -1325l-624 1323l-15 10h-63l-17 -16v-1414l19 -16h53l16 16q-2 311 -3 621.5t-1 622.5q141 -317 294 -628l306 -624l13 -8h43l14 8l319 632l318 632l-6 -1256l18 -16h54z" />
<glyph unicode="N" horiz-adv-x="1306" d="M1190 16v1414l-19 16h-57l-16 -16l8 -1285l-463 651l-469 644l-12 6h-58l-16 -16v-1414l18 -16h54l16 16q-2 324 -3 641.5t-1 640.5l466 -648l470 -644l12 -6h54z" />
<glyph unicode="O" d="M1425 737q0 164 -38.5 297t-119.5 226.5t-206 144.5t-297 51t-297 -51t-206 -144.5t-120 -226.5t-39 -297q0 -160 40 -296t123 -237.5t207 -158.5t294 -57q166 0 289 59t205.5 160.5t123.5 237.5t41 292zM1335 737h-2q0 -133 -33.5 -255t-104.5 -215t-177.5 -148.5 t-253.5 -55.5q-145 0 -253 55.5t-178.5 148.5t-105 215t-34.5 255q0 141 32.5 259t101 204t177 133t262.5 47q152 0 260.5 -47t177 -133t100 -204t31.5 -259z" />
<glyph unicode="P" horiz-adv-x="880" d="M778 1067q0 106 -28.5 179t-83 119t-133 66.5t-179.5 20.5q-117 0 -235 -6l-17 -16v-1414l19 -16h55l17 16v633q70 -14 151 -14q96 0 176 30.5t137.5 88t89 136.5t31.5 177zM690 1067h-2q0 -164 -90 -261t-256 -97q-35 0 -75 1t-77 7v653q41 2 83 3t83 1q156 0 245 -69.5 t89 -237.5z" />
<glyph unicode="Q" d="M1425 737q0 164 -38.5 297t-119.5 226.5t-206 144.5t-297 51t-297 -51t-206 -144.5t-120 -226.5t-39 -297q0 -152 37 -283.5t113 -232t192.5 -162t278.5 -69.5q-4 -8 -4 -10q4 -166 91 -265.5t261 -99.5q80 0 145.5 26.5t111.5 76t70.5 116t24.5 146.5q0 16 -18 16h-62 l-16 -16q0 -59 -16.5 -111.5t-49 -90.5t-80.5 -60.5t-112 -22.5q-63 0 -111.5 21.5t-81 60.5t-49 90t-16.5 113l-2 10q158 8 273.5 71.5t192.5 164t113.5 232.5t36.5 279zM1335 737h-2q0 -133 -33.5 -255t-104.5 -215t-177.5 -148.5t-253.5 -55.5q-145 0 -253 55.5 t-178.5 148.5t-105 215t-34.5 255q0 141 32.5 259t101 204t177 133t262.5 47q152 0 260.5 -47t177 -133t100 -204t31.5 -259z" />
<glyph unicode="R" horiz-adv-x="1042" d="M940 14q0 8 -4 13q-29 63 -60.5 123.5t-60.5 125.5l-45 108q-27 62 -59.5 123.5t-71.5 115t-82 77.5q123 45 188.5 146.5t65.5 230.5q0 102 -28.5 174t-82 116t-130 64.5t-173.5 20.5q-139 0 -280 -6l-15 -16v-1414l17 -16h57l17 16v652h231q45 0 89 -39t84 -100.5 t77 -136.5t67 -147l56 -136q25 -63 41 -99l14 -10q6 0 20 -1q7 -1 14.5 -1t15.5 1q15 1 26.5 4t11.5 11zM725 1077h-2q0 -70 -22.5 -130t-63.5 -105t-98.5 -71t-128.5 -26h-220v625q53 2 104.5 3t104.5 1q150 0 238 -68.5t88 -228.5z" />
<glyph unicode="S" horiz-adv-x="989" d="M887 340q0 125 -51.5 201.5t-128 128t-165.5 88.5t-166 83t-128 111.5t-51 171.5q0 68 24.5 116t65.5 80t97 46t118 14q59 0 95 -5t65.5 -13t60.5 -20.5t78 -24.5q2 -2 10 -2q6 0 9 6t3 10v66l-14 16q-72 25 -153 34t-156 9q-80 0 -150.5 -19.5t-124 -61.5t-84 -105.5 t-30.5 -149.5q0 -123 51 -198.5t128 -127t166 -89t165.5 -85t128 -113t51.5 -173.5q0 -72 -30 -123t-78 -84t-109.5 -48.5t-124.5 -15.5q-141 0 -273 54q-14 6 -29.5 14t-29.5 12q-4 2 -10 2q-14 0 -15 -14v-78l15 -14q80 -29 169 -40t175 -11q84 0 160.5 19.5t136 62.5 t94.5 109.5t35 160.5z" />
<glyph unicode="T" horiz-adv-x="1138" d="M1036 1372v58l-16 16h-899l-17 -16q0 -6 -1 -19q-1 -6 -0.5 -12t0.5 -13q1 -12 5.5 -21t14.5 -9q61 0 121.5 5t122.5 5h159v-1350l17 -16h55l16 16v1350h172q59 0 115.5 -3t116.5 -7z" />
<glyph unicode="U" horiz-adv-x="1277" d="M1176 1384v46l-17 16h-57l-17 -16v-46q0 -217 -1 -434t-19 -434q-8 -96 -37 -178t-81 -142.5t-128 -95t-180 -34.5q-115 0 -191.5 31.5t-126 90t-75 142.5t-33.5 188q-20 227 -20 455v457l-17 16h-57l-17 -16v-58q0 -215 3.5 -429t19.5 -429q10 -127 41 -224t91 -165 t153.5 -102.5t228.5 -34.5q125 0 217 39t155.5 108.5t98.5 166.5t43 214q16 217 19.5 434t3.5 434z" />
<glyph unicode="V" horiz-adv-x="1382" d="M1280 1434q0 12 -14 12h-62l-14 -10l-537 -1309l-458 1309l-17 10q-4 0 -16 1q-6 1 -12.5 0.5t-13.5 -0.5q-13 -1 -23.5 -4t-10.5 -9t16.5 -55.5t42.5 -120.5l56 -154l58 -161l49 -134q20 -57 28 -78l256 -721l17 -10h53l14 10l41 98l74 176l95 228l105 251l101 246 l87 213l61 150q24 58 24 62z" />
<glyph unicode="W" horiz-adv-x="1910" d="M1807 1429q0 5 -4 10q-5 7 -13 7h-59l-15 -12l-135 -636l-133 -636l-447 1263l-14 11h-57l-17 -11l-222 -631l-224 -632l-274 1272l-15 12q-8 0 -20.5 1t-24.5 1t-21.5 -5t-9.5 -18q0 -41 16.5 -97t26.5 -99l109 -496l158 -721l16 -12h57l17 10l225 645l225 645 l455 -1290l16 -10h58l16 12l154 707q16 71 59 218.5t70 270t27 221.5z" />
<glyph unicode="X" horiz-adv-x="1282" d="M1180 12q0 4 -32 57l-81 130l-108 169l-111 174l-93 144l-53 80q8 14 46 68l86 127l104 154l101 151l77 116q31 47 31 52q0 6 -6 9t-11 3h-69l-14 -8l-390 -594l-368 594l-15 8q-4 0 -17 1q-7 1 -13.5 0.5t-14.5 -0.5q-14 -1 -24 -4t-10 -9q0 -4 27 -51l70 -114l92 -151 l95 -155l80 -129l45 -72q-10 -16 -51 -76l-97 -141l-118 -174l-114 -170l-87 -131q-35 -53 -35 -58q0 -6 7.5 -9t11.5 -3h63l15 8l452 680l430 -680l15 -8q6 0 19 -1t28 -1q14 0 25.5 3t11.5 11z" />
<glyph unicode="Y" horiz-adv-x="1046" d="M944 1436q0 4 -6 7t-10 3h-54l-14 -10l-170 -366l-170 -365l-327 731l-15 10q-4 0 -16 1q-6 1 -12.5 0.5t-13.5 -0.5q-13 -1 -23.5 -3t-10.5 -8t25 -64l62 -141l84 -183l87 -190l72 -158q31 -68 41 -88v-596l14 -16h60l16 16v600l40 83l74 156l89 188l87 186l66 143 q25 58 25 64z" />
<glyph unicode="Z" horiz-adv-x="1196" d="M1092 10q0 6 1 19q1 6 0.5 12t-0.5 12q-1 12 -4.5 21.5t-11.5 9.5q-90 0 -179 -4t-179 -4h-512l872 1308v46l-16 16h-922l-16 -16q0 -6 -1 -18.5t-1 -25.5q0 -10 4 -19t14 -9q416 0 832 12l-871 -1304v-50l15 -16h479q240 0 481 -6z" />
<glyph unicode="[" horiz-adv-x="466" d="M362 -18v45l-16 16q-37 6 -75 4t-76 4v1401l153 8l14 17q0 4 1.5 14t0 20.5t-5.5 18.5t-12 8q-57 0 -113.5 -1t-115.5 -1l-15 -16v-1536l17 -17h227q4 0 8 5.5t8 9.5z" />
<glyph unicode="\" horiz-adv-x="819" d="M717 16q0 2 -21 60l-55 151l-79 215l-91 250l-93 254l-84 228l-65 173q-27 71 -32 89l-15 10q-4 0 -17 1t-28 1q-14 0 -24.5 -4t-10.5 -14q0 -2 21 -60l55 -151l79 -215l91 -250l93 -254l84 -228l65 -173q27 -71 33 -89l14 -10q4 0 17.5 -1t25.5 -1q14 0 25.5 4t11.5 14z " />
<glyph unicode="]" horiz-adv-x="462" d="M360 -16v1536l-14 16q-57 0 -113.5 1t-113.5 1q-16 0 -17 -16v-45q4 -10 26 -14.5t48 -5.5l53 -2q27 -1 39 -3v-1401l-151 -8l-15 -16v-45q4 -14 17 -15h227z" />
<glyph unicode="^" horiz-adv-x="1054" d="M952 1147q0 4 -24 31l-62 64l-81 81l-84 83l-70 69q-31 29 -39 36q-4 4 -12 5h-105l-369 -357l-4 -12q0 -16 19 -17h55l352 328l353 -328q16 0 40.5 -1.5t30.5 18.5z" />
<glyph unicode="_" horiz-adv-x="1105" d="M1176 -453v47l-17 17h-1200l-16 -17v-47l16 -16h1200z" />
<glyph unicode="`" horiz-adv-x="557" d="M455 1143q0 2 -17 35l-42 80l-56 105l-58 106l-49 89q-20 38 -26 48l-14 8h-72q-18 0 -19 -17q0 -2 20 -34l49 -81l66 -105l67 -106l55 -87q24 -37 30 -47l14 -9q10 0 31 -0.5t21 15.5z" />
<glyph unicode="a" horiz-adv-x="917" d="M815 16v680q0 86 -22.5 140.5t-64.5 87t-103.5 45t-139.5 12.5q-37 0 -78.5 -5t-83.5 -15.5t-82 -26.5t-71 -37l-6 -14q0 -6 -1 -18.5t0 -27t4 -24.5t11 -10q4 0 32 16.5t70 35.5t96 35.5t111 16.5q113 0 178.5 -44t65.5 -167v-110q-57 2 -127 2q-68 0 -137.5 -6.5 t-135 -23.5t-116.5 -52t-82 -89.5t-31 -135.5q0 -131 82 -212t213 -81q117 0 201 57t135 160l4 -189l17 -16h45zM729 516h-2q0 -27 -1 -53.5t-3 -52.5q-6 -68 -30.5 -130.5t-65.5 -111.5t-99.5 -78t-132.5 -29q-45 0 -82 18.5t-63.5 48.5t-40.5 70t-14 83q0 76 33.5 123 t86 73.5t117 34.5t127.5 8h84q43 0 86 -4z" />
<glyph unicode="b" horiz-adv-x="1026" d="M924 567q0 207 -97.5 310.5t-308.5 103.5q-100 0 -187 -39t-145 -125v723l-16 16h-53l-15 -16v-1528q0 -4 2 -10t9 -6h26q18 0 29 4q61 -8 123.5 -10t126.5 -2q123 0 217 48t158.5 128t97.5 184t33 219zM840 567q0 -96 -27 -187t-79 -162t-131 -114t-185 -43h-45 q-33 0 -71 1t-70.5 4.5t-45.5 7.5v567q0 59 32 108.5t81 84t107.5 54t111.5 19.5q168 0 245 -88t77 -252z" />
<glyph unicode="c" horiz-adv-x="980" d="M874 78q0 5 1.5 21t1.5 26q0 21 -17 29q-2 0 -29.5 -14.5t-71.5 -32t-100.5 -32t-113.5 -14.5q-98 0 -166 37t-111 98.5t-62.5 142.5t-19.5 169q0 86 21.5 160.5t66.5 128t112 84t159 30.5q47 0 95 -10t88 -23l69 -24q29 -10 37 -10q12 0 12 14v64l-10 14q-66 25 -145 37 t-146 12q-111 0 -194 -33.5t-138 -97t-83 -152t-28 -194.5q0 -113 24 -208t76 -164.5t137 -108.5t206 -39q37 0 79 5t85 14t84 23.5t73 32.5z" />
<glyph unicode="d" horiz-adv-x="1038" d="M936 16v1524l-14 16h-54l-16 -16v-573q-63 6 -126.5 10t-127.5 4q-258 0 -377 -127t-119 -383q0 -104 22.5 -193.5t73 -154t129.5 -100t191 -35.5q111 0 199 58t137 157l4 -187l16 -16h48zM852 881l-2 -410q0 -76 -19.5 -149.5t-59.5 -131t-102.5 -93.5t-148.5 -36 q-92 0 -155.5 33t-103.5 89.5t-57.5 130t-17.5 157.5q0 209 98.5 322.5t313.5 113.5q55 0 128 -5t126 -21z" />
<glyph unicode="e" horiz-adv-x="1007" d="M905 516q0 92 -17.5 176t-58.5 149.5t-111.5 104.5t-176.5 39t-188.5 -35t-137.5 -96t-84 -147t-29 -189q0 -119 22.5 -216t74 -166.5t136.5 -108.5t212 -39q37 0 78 5t82 14t80.5 23.5t70.5 32.5l8 15q0 6 1 18.5t0 24.5t-4 22.5t-11 10.5q-4 0 -31.5 -14.5t-70.5 -32 t-95.5 -32t-107.5 -14.5q-96 0 -164 33t-111 89.5t-63.5 133t-20.5 166.5q176 0 350.5 5.5l350.5 11.5zM819 575q-143 -10 -285.5 -13t-285.5 -3h-60q2 76 28 141.5t72 111.5t110.5 72.5t142.5 26.5q70 0 122 -28.5t85.5 -76.5t51 -109t19.5 -122z" />
<glyph unicode="f" horiz-adv-x="827" d="M725 1393v67l-10 15q-37 18 -88.5 25t-91.5 7q-129 0 -189.5 -53t-83.5 -136q-20 -73 -20 -160q0 -12 1 -23q3 -100 3 -195h-127l-17 -16v-45l19 -17h125v-846l16 -16h51l17 16v846h344l16 17v45l-18 16h-344v238q0 55 10 101t33.5 81t63.5 54.5t102 19.5q39 0 85 -12.5 t76 -39.5z" />
<glyph unicode="g" horiz-adv-x="933" d="M831 -25v965l-16 16q-57 14 -117.5 19.5t-117.5 5.5q-106 0 -194.5 -44t-151 -118t-97.5 -170t-35 -200q0 -84 16.5 -166t55.5 -146.5t102.5 -104.5t159.5 -40q102 0 183 59.5t129 145.5v-242q0 -70 -18.5 -131.5t-57.5 -108.5t-96.5 -74.5t-135.5 -27.5q-27 0 -61.5 4 t-70.5 14.5t-66.5 25.5t-48.5 40l-13 6q-16 0 -16 -16v-80q20 -20 56 -33.5t76 -22t79 -11.5t65 -3q100 0 174 35t122 94.5t71.5 139t23.5 169.5zM750 885l-2 -391q0 -66 -20.5 -142t-60.5 -139t-98.5 -105t-132.5 -42t-122 36.5t-76.5 93t-40 124t-11.5 129.5 q0 86 28 168.5t79 147t123.5 103.5t163.5 39q43 0 86 -5t84 -17z" />
<glyph unicode="h" horiz-adv-x="1005" d="M903 16v625q0 90 -27.5 154.5t-79 105.5t-121 60.5t-155.5 19.5q-98 0 -186 -40t-146 -124v723l-16 16h-53l-17 -16v-1524l17 -16h53l16 16v629q0 59 33 107.5t82 83t107.5 53t109.5 18.5q63 0 117.5 -16.5t94.5 -50t62.5 -82.5t22.5 -117v-625l17 -16h53z" />
<glyph unicode="i" horiz-adv-x="317" d="M215 1219v79l-16 17h-82l-15 -17v-79l17 -15h82zM201 16v938l-17 17h-53l-16 -17v-938l18 -16h53z" />
<glyph unicode="j" horiz-adv-x="684" d="M582 1219v79l-17 17h-80l-14 -17v-79l14 -15h80zM567 55v899l-14 17h-53l-17 -17q0 -225 1 -449t1 -450q0 -59 -4 -136t-24.5 -145.5t-66.5 -115.5t-128 -47q-31 0 -70.5 11t-62.5 38l-12 6q-14 0 -15 -16v-60l9 -14q31 -20 72.5 -29.5t78.5 -9.5q109 0 170.5 49t91 125 t36.5 168t7 176z" />
<glyph unicode="k" horiz-adv-x="917" d="M815 16q0 6 -6 13l-282 270l-285 268l485 391l6 13q0 16 -18 16h-72l-227 -190l-230 -191v936l-16 17h-51l-17 -17v-1526l19 -16h51l16 16v500l537 -516h74q6 0 10 6t6 10z" />
<glyph unicode="l" horiz-adv-x="671" d="M567 41q0 5 0.5 20.5t0.5 25.5q0 24 -15 30q-4 0 -14.5 -8.5t-26.5 -19.5t-42 -19.5t-62 -8.5q-84 0 -129.5 47.5t-65.5 116t-24.5 145t-4.5 136.5q0 260 1 517t1 517l-16 16h-53l-15 -16v-1034q0 -84 7.5 -176t37 -168t91 -125t170.5 -49q37 0 78.5 9t72.5 30z" />
<glyph unicode="m" horiz-adv-x="1544" d="M1442 16v625q0 158 -82 249t-246 91q-104 0 -187 -53.5t-132 -143.5q-39 90 -125 143.5t-183 53.5q-94 0 -171.5 -45t-129.5 -123l-6 141l-16 17h-45l-17 -17v-938l17 -16h53l16 16v623q0 55 27 104.5t70 86t96 57t106 20.5q123 0 182.5 -74.5t59.5 -191.5v-625l16 -16 h54l16 16v625q0 55 27.5 103.5t70.5 85t96.5 57t104.5 20.5q127 0 184.5 -72.5t57.5 -193.5v-625l16 -16h53z" />
<glyph unicode="n" horiz-adv-x="1005" d="M903 16v625q0 90 -28.5 154.5t-79 105.5t-121 60.5t-154.5 19.5q-102 0 -190 -44t-144 -130l-6 147l-16 17h-45l-17 -17v-938l17 -16h53l16 16v643q0 53 35 98.5t86 79t108.5 52t102.5 18.5q63 0 117.5 -16.5t94.5 -50t62.5 -82.5t22.5 -117v-625l17 -16h53z" />
<glyph unicode="o" horiz-adv-x="1112" d="M1010 489q0 113 -26 205t-80 156.5t-140 99.5t-207 35t-207 -35t-141 -99.5t-81 -155.5t-26 -206q0 -109 28 -200.5t85 -158.5t143 -104.5t201 -37.5t200 37.5t140 104.5t83 158.5t28 200.5zM926 489h-2q0 -86 -21.5 -163.5t-66.5 -136t-115 -93.5t-164 -35t-163.5 35 t-116 93.5t-69 136t-22.5 163.5q0 90 21.5 168t66.5 134.5t116 88t169 31.5t168 -31.5t114 -89t64.5 -134.5t20.5 -167z" />
<glyph unicode="p" horiz-adv-x="1011" d="M909 547q0 205 -99 321.5t-310 116.5q-98 0 -179 -43t-135 -125v137l-16 17h-53l-15 -17v-1415l15 -16h53l16 16v475q55 -12 112.5 -19t115.5 -7q117 0 208 47t155.5 125t98 178t33.5 209zM825 547q0 -92 -26.5 -179t-78.5 -156t-129 -110t-177 -41q-57 0 -114.5 6.5 t-111.5 26.5v463q0 70 20.5 134.5t60.5 113.5t97.5 77.5t133.5 28.5q86 0 147.5 -26.5t101 -74.5t58 -115.5t18.5 -147.5z" />
<glyph unicode="q" horiz-adv-x="1019" d="M918 -461v1417q0 4 -3.5 10.5t-7.5 6.5q-16 0 -32.5 3t-30.5 -1l-123 4q-61 2 -125 2q-242 0 -368 -135t-126 -373q0 -100 17.5 -188t60.5 -155t117 -104.5t188 -37.5q117 0 206 56t143 161v-666l16 -16h53zM838 895h-2q1 -60 1 -120.5t-1 -121.5q-2 -121 -11 -241 q-4 -70 -29.5 -133.5t-69.5 -111.5t-104.5 -77t-134.5 -29q-90 0 -148 36t-92 93.5t-47.5 131t-13.5 151.5q0 98 27 178t79 136.5t129 88t177 31.5q59 0 120 -1t120 -11z" />
<glyph unicode="r" horiz-adv-x="675" d="M659 897v61l-14 17q-16 4 -33 4h-34q-92 0 -171 -41t-135 -117v133l-16 17h-53l-15 -17v-938l17 -16h53l16 16v613q0 57 22.5 105t60.5 83t88.5 55.5t105.5 20.5q18 0 42.5 -1t45.5 -9z" />
<glyph unicode="s" horiz-adv-x="800" d="M698 233q0 86 -37.5 140.5t-94 90.5t-123 62.5t-123 56t-94.5 70.5t-38 109q0 43 18.5 71.5t48.5 46t66.5 24.5t73.5 7q39 0 80 -8t77 -17t63.5 -17.5t39.5 -8.5q4 0 7.5 6t3.5 11v59l-13 14q-61 18 -127.5 26.5t-130.5 8.5q-53 0 -105 -11t-93 -38t-67 -70t-26 -104 q0 -88 38 -142.5t94.5 -91t123 -62.5t123 -54.5t94 -68.5t37.5 -105q0 -49 -21.5 -83t-56 -54.5t-77.5 -30t-84 -9.5q-51 0 -83 5.5t-57.5 14.5t-52 21.5t-65.5 26.5q-14 0 -15 -16v-68l11 -12q55 -23 126.5 -34t131.5 -11q59 0 117.5 12t105.5 42t75.5 76.5t28.5 114.5z " />
<glyph unicode="t" horiz-adv-x="843" d="M754 57q0 6 1 19q1 6 0.5 12t-0.5 12q-1 12 -4 22.5t-12 10.5q-8 0 -28.5 -11t-49 -24.5t-64.5 -25t-75 -11.5q-49 0 -80.5 20.5t-50 53.5t-26 75t-7.5 83v569h349l16 17v45l-18 16h-347v289l-18 16h-41l-16 -16q-2 -72 -3 -144.5t-6 -144.5h-141l-16 -16v-45l18 -17h141 v-569q0 -68 11.5 -124t39 -96t76 -62.5t121.5 -22.5q51 0 113.5 14t107.5 43z" />
<glyph unicode="u" horiz-adv-x="989" d="M887 16v938l-17 17h-53l-14 -17q0 -137 -1 -272t-1 -272q0 -72 -29 -135.5t-76 -110.5t-111.5 -75t-133.5 -28q-74 0 -124.5 27t-82 73t-45 104.5t-13.5 123.5l7 565q-4 14 -15 17h-53l-16 -17q-6 -283 -7 -565q0 -84 19.5 -157.5t61.5 -128t108.5 -85t159.5 -30.5 q121 0 211 56t143 161l2 -189l16 -16h47z" />
<glyph unicode="v" horiz-adv-x="970" d="M868 958q0 6 -6 9.5t-10 3.5h-53l-15 -10l-148 -405l-153 -402l-286 807l-17 10q-4 0 -16 1q-6 1 -13 0.5t-14 -0.5q-14 -1 -24.5 -4t-10.5 -10q0 -6 24 -72l59 -165l79 -215l82 -220l68 -180l37 -96l16 -10h31l14 10q6 14 23.5 62.5t44.5 115.5l58 151l63 168l62 165 l53 142l38 101q14 39 14 43z" />
<glyph unicode="w" horiz-adv-x="1472" d="M1370 961q0 4 -6 7t-10 3h-45l-17 -13l-118 -410l-119 -411l-310 824l-14 10h-37l-14 -10l-145 -408l-146 -408l-194 813l-17 13q-6 0 -19 1q-7 1 -14 0h-13q-13 -1 -22 -5q-6 -3 -7 -10q0 -3 1 -7l228 -938l14 -12h62l16 10l143 409l146 408l305 -817l16 -10h51l17 12 l27 97l52 179l63 220l62 215l46 165q18 67 18 73z" />
<glyph unicode="x" horiz-adv-x="1044" d="M942 14l-24 34l-64 84l-85 111l-87 114l-73 96l-42 53l39 52l67 88l80 104l75 99l57 76q23 30 22 31q0 14 -16 15h-66l-14 -8q-70 -104 -144 -203l-149 -199l-149 201l-148 203l-12 6q-8 0 -21.5 1t-25.5 1t-22.5 -4t-14.5 -13q0 -2 23 -31l59 -76l78 -100l82 -105 l67 -88q29 -38 39 -50q-12 -14 -44 -56l-73 -96l-86 -111l-82 -109l-61 -84q-25 -34 -25 -36q0 -14 17 -14h65l15 6l156 224q79 112 165 221l165 -220q83 -109 161 -223l14 -8q8 0 20.5 -1t24.5 -1t22.5 3t14.5 13z" />
<glyph unicode="y" horiz-adv-x="1118" d="M1016 961q0 4 -6 7t-11 3h-63l-14 -10l-187 -423l-188 -423l-354 846l-15 10q-4 0 -16 1q-6 1 -12.5 0.5t-13.5 -0.5q-13 -1 -23.5 -4t-10.5 -10q0 -4 27 -69l68 -164l90 -214l92 -219l76 -179l41 -95q-4 -10 -21 -44l-37 -78l-44 -95l-43 -92l-31.5 -72.5t-12.5 -33.5 q0 -6 6 -8.5t11 -2.5h61l14 9q8 20 40 88l77 166l99 217l110 240l108 238l93 206l65 145q25 56 25 60z" />
<glyph unicode="z" horiz-adv-x="991" d="M889 16v43l-17 17h-651l658 837v41l-17 17h-717l-16 -17v-43l16 -16h619l-662 -840v-39l17 -16h753z" />
<glyph unicode="{" horiz-adv-x="497" d="M395 -31v49l-16 17q-47 0 -66.5 13t-25.5 37t-3 57.5t3 76.5q0 111 7 227.5t-7 227.5q-4 31 -25.5 51t-52.5 25q27 6 52.5 26.5t25.5 50.5l4 615q0 14 9 22.5t23.5 11.5t28.5 3h27l16 16v49l-16 17h-55q-53 0 -79 -28t-37 -69t-11 -86v-82q0 -115 8 -232.5t-6 -232.5 q-4 -29 -29 -41t-51 -12l-17 -16v-31l17 -16q41 0 59.5 -17.5t23.5 -45t3 -59.5t-2 -63q0 -117 -5 -232.5t5 -231.5q4 -47 38.5 -79t82.5 -32h55z" />
<glyph unicode="|" horiz-adv-x="296" d="M195 -358v1898l-19 16h-57l-17 -16v-1898l19 -17h57z" />
<glyph unicode="}" horiz-adv-x="505" d="M403 731v31l-18 16q-23 0 -49.5 11.5t-28.5 39.5l-16 619q-2 51 -34 82t-83 31h-55l-17 -17v-49l19 -16q23 0 51.5 -2t32.5 -31q8 -57 7 -117.5t-1 -120.5q0 -94 -2 -192t10 -191q4 -29 25.5 -48t50.5 -27q-41 -12 -59.5 -45t-23.5 -74t-3 -86t2 -78q0 -98 3 -198.5 t-11 -198.5q-4 -31 -32 -33t-52 -2l-17 -17v-49l19 -14h55q55 0 82 37t36 88t7 106.5t-2 92.5q0 98 -3 197t11 196q4 27 31 35t49 8z" />
<glyph unicode="~" horiz-adv-x="1077" d="M975 1346l-25 38l-12 9q-6 0 -20.5 -14.5t-37 -33t-54 -33t-74.5 -14.5q-53 0 -103.5 15.5t-101.5 33t-102.5 33t-104.5 15.5q-16 0 -55 -11.5t-79 -28t-72 -38t-32 -39.5q0 -4 5.5 -13.5t11.5 -18.5t12 -16t8 -7q8 0 26.5 15t44.5 33.5t59.5 34t70.5 15.5 q51 0 103.5 -14.5t102.5 -33t101 -32.5t105 -14q59 0 119.5 28.5t101.5 69.5z" />
<glyph unicode="&#xa1;" horiz-adv-x="303" d="M201 1368v74l-13 14h-73l-13 -14v-74l13 -14h73zM193 4v1225l-17 16h-59l-15 -16v-1225l15 -16h59z" />
<glyph unicode="&#xa2;" horiz-adv-x="980" d="M874 78q0 16 2.5 41.5t-16.5 34.5q-4 0 -12 -4q-59 -41 -129 -62.5t-141 -26.5v850q33 -2 75.5 -13t80.5 -24l67 -21q29 -9 33 -9q12 0 12 14v64l-10 14q-59 23 -127 34t-131 15v96l-17 17h-59l-15 -17v-98q-100 -10 -172.5 -49t-120 -101.5t-70 -145.5t-22.5 -179 q0 -100 19.5 -189.5t64.5 -159t119 -114.5t182 -55v-133l15 -17h59l17 17v131q68 4 148.5 22.5t139.5 52.5zM487 66q-86 12 -143 53t-92 102.5t-50.5 135t-15.5 151.5q0 76 16.5 144.5t53.5 121.5t94.5 88t136.5 45v-841z" />
<glyph unicode="&#xa3;" horiz-adv-x="974" d="M870 16q0 6 1 18.5t0 24t-5 20.5t-14 9q-76 0 -152.5 -4t-154.5 -4h-336q37 55 68.5 123.5t55 140.5t37 145.5t13.5 139.5v41q0 20 -4 41l352 -9l17 17v55l-19 17h-362q-8 45 -23 91l-29 91q-14 45 -24 91t-10 93q0 61 23.5 103.5t62.5 68t89 36.5t103 11q43 0 86 -8 t81 -19l65 -20q27 -8 34 -8q6 0 10.5 6t4.5 10v60l-15 16q-63 20 -131.5 31.5t-136.5 11.5q-72 0 -138.5 -16.5t-117.5 -52t-81 -92t-30 -138.5q0 -47 9.5 -93t23.5 -91l30 -91q15 -46 26 -91h-132l-16 -17v-51l19 -16q35 0 70.5 2t72.5 2v-82q0 -68 -11.5 -143.5 t-35 -150.5t-59 -142.5t-85.5 -116.5v-60l19 -16h733z" />
<glyph unicode="&#xa5;" horiz-adv-x="1030" d="M928 1436q0 10 -15 10h-55l-14 -10l-166 -360l-168 -359l-317 719l-15 10q-4 0 -16 1t-25.5 0t-24 -3t-10.5 -8t23 -58l56 -127l74 -165l77 -170l65 -142l37 -80h-233l-15 -16v-45l15 -17h260v-254h-260l-15 -16v-45l15 -16h260v-269l14 -16h60l16 16v269h252l16 16v45 l-16 16h-252v254h252l16 17v45l-16 16h-221q6 16 34 76l68 140l82 171l79 168l59 130q24 53 24 57z" />
<glyph unicode="&#xa6;" horiz-adv-x="1034" d="M932 999q0 51 -36 87t-87 36t-87 -35.5t-36 -87.5q0 -51 36 -86.5t87 -35.5t87 35.5t36 86.5zM379 999q0 51 -36 87t-87 36t-87 -35.5t-36 -87.5q0 -51 36 -86.5t87 -35.5t87 35.5t36 86.5zM625 207v1220l-19 17h-309l-16 -17v-47l18 -16l240 -2v-1165q0 -61 -10.5 -122 t-37 -110t-74.5 -78.5t-122 -29.5q-31 0 -52.5 7t-42 17t-39 21.5t-42.5 19.5q-16 0 -17 -18l13 -72l8 -12q37 -20 84 -30.5t90 -10.5q96 0 159.5 35.5t100.5 95t52.5 136.5t15.5 161zM829 -260l-14 12h-47l-12 -12q0 -92 -51.5 -156.5t-149.5 -64.5q-100 0 -150.5 63.5 t-50.5 157.5l-12 12h-45l-14 -12q4 -129 70.5 -206t201.5 -77q129 0 199.5 79t74.5 204zM907 954q0 -16 -11 -27.5t-28 -11.5q-16 0 -27.5 11.5t-11.5 27.5t11.5 27.5t27.5 11.5t27.5 -11.5t11.5 -27.5zM354 954q0 -16 -11 -27.5t-28 -11.5q-16 0 -27.5 11.5t-11.5 27.5 t11.5 27.5t27.5 11.5t27.5 -11.5t11.5 -27.5z" />
<glyph unicode="&#xa7;" horiz-adv-x="499" d="M397 731q0 59 -15 116.5t-32.5 115t-33 114t-15.5 115.5q0 53 23.5 107.5t64.5 89.5l6 12q0 12 -18.5 24.5t-28.5 18.5l-20 -4q-43 -47 -71 -116t-28 -132q0 -59 14.5 -116.5t33 -115t33 -115t14.5 -114.5q0 -37 -9.5 -64.5t-24 -52t-31.5 -49l-34 -51.5l-30.5 107.5 t-16.5 111.5t23.5 105.5t64.5 89.5l6 14q0 10 -18 22.5t-29 18.5l-20 -2q-43 -47 -71 -115.5t-28 -132.5q0 -59 14.5 -116.5t33 -115t33 -115.5t14.5 -116q0 -41 -10.5 -68.5t-25.5 -51t-32.5 -47t-30.5 -54.5q0 -4 6.5 -12t15.5 -16.5t18.5 -13.5t15.5 -5q18 0 39.5 36 t38 83t27.5 90t11 59q0 57 -13 115.5t-30 112.5q12 -4 21.5 -19.5t28.5 -15.5q18 0 39.5 36t38 82t27.5 90t11 60z" />
<glyph unicode="&#xa8;" horiz-adv-x="677" d="M575 1178v90l-14 16h-90l-16 -16v-90l16 -17h90zM223 1178v92l-16 16h-90l-15 -16v-92l15 -17h90z" />
<glyph unicode="&#xa9;" horiz-adv-x="1636" d="M1534 721q0 150 -53.5 284t-148.5 234t-225 158.5t-284 58.5t-284.5 -58.5t-228 -157.5t-153 -233.5t-55.5 -285.5q0 -152 55.5 -285t153 -233.5t228.5 -157.5t284 -57q154 0 284 58t225 157.5t148.5 232.5t53.5 285zM1444 721q0 -129 -48 -245t-132 -205t-197 -141 t-244 -52t-245.5 52t-200.5 140t-135 205t-49 246t49 245.5t135 206t200.5 141.5t245.5 52t245 -52t197 -141.5t131 -206t48 -245.5zM1118 356q0 6 1 22.5t1 33.5q0 18 -4 30.5t-14 12.5q-2 0 -24.5 -13.5t-57.5 -29t-81 -28.5t-95 -13q-74 0 -129.5 28.5t-90 76.5 t-52 110.5t-17.5 130.5q0 74 13.5 137.5t47 108.5t89 70.5t139.5 25.5q37 0 74.5 -8.5t70.5 -19.5l58 -19q25 -8 34 -8q8 0 11.5 6t3.5 12v70l-13 16q-49 23 -117.5 32t-121.5 9q-109 0 -183.5 -29.5t-120.5 -85t-65.5 -136.5t-19.5 -181q0 -92 23.5 -172t71.5 -138.5 t120.5 -92t173.5 -33.5q61 0 135 15t131 44z" />
<glyph unicode="&#xaa;" horiz-adv-x="579" d="M473 963v340q0 90 -46 120.5t-128 30.5q-37 0 -83 -11t-79 -34l-6 -14v-15q0 -10 1 -19t4 -16.5t9 -7.5q4 0 17.5 8.5t35 18.5t48 18.5t55.5 8.5q51 0 78 -15.5t27 -72.5v-46q-45 0 -97.5 -2t-98.5 -16t-77 -48t-31 -95q0 -68 41 -112t113 -44q47 0 85 21.5t67 60.5v-59 l18 -17h31zM477 842v37l-18 16h-330l-16 -16v-37l18 -17h330zM403 1196h-2q0 -37 -7 -70.5t-24.5 -61.5t-46 -44t-71.5 -16q-37 0 -59.5 28.5t-22.5 63.5q0 33 15.5 53t40 31.5t54 14.5t56.5 3h33q18 0 34 -2z" />
<glyph unicode="&#xab;" horiz-adv-x="907" d="M805 426l-8 16l-318 308l320 301l6 16l-14 51l-17 12q-6 0 -33 -24l-64 -62l-83 -80l-84 -84l-70 -71l-39 -39l-4 -10q0 -8 1 -18.5t5 -16.5l359 -356l10 -7q8 0 14.5 8.5t9.5 18.5t5 21.5t4 15.5zM510 426h-2l-6 16l-318 306l320 303l6 16q-2 4 -4 14.5t-5 21.5t-8.5 19 t-13.5 8q-4 0 -30 -24l-65 -62l-83 -80l-85 -84l-71 -71l-39 -39l-4 -10q0 -8 1 -18.5t6 -16.5l36 -38l69 -70l85 -83l83 -82l64 -63q27 -25 29 -24q16 0 23.5 25.5t11.5 35.5z" />
<glyph unicode="&#xac;" horiz-adv-x="903" d="M801 618v220l-17 14h-665l-17 -14v-47l17 -17h596v-156l16 -16h53z" />
<glyph unicode="&#xad;" horiz-adv-x="641" d="M539 641v47l-19 17h-401l-17 -17v-47l19 -16h401z" />
<glyph unicode="&#xae;" horiz-adv-x="1671" d="M1569 725q0 152 -58.5 285t-159 232t-234.5 156.5t-283 57.5q-152 0 -284 -57.5t-232.5 -157.5t-158 -233.5t-57.5 -282.5q0 -152 57.5 -285t157 -234.5t232.5 -159.5t285 -58t285.5 58t233 158.5t158 234.5t58.5 286zM1479 725q0 -129 -52.5 -247t-141.5 -207 t-205.5 -141t-245.5 -52t-246 53t-204 142t-139 206t-52 246t52 244.5t140 205t204 141.5t245 52t245.5 -52t205.5 -141.5t141.5 -205t52.5 -244.5zM1171 266q0 4 -2 7t-4 8q-35 37 -56 88l-42 98l-25 56q-16 38 -37.5 77t-45 69.5t-44.5 35.5q37 10 67 33.5t51.5 55 t33.5 68.5t12 74q0 137 -72.5 198.5t-205.5 61.5q-12 0 -44 -1t-67 -4t-63.5 -9t-32.5 -19v-895l18 -18h62l16 18v396h139q16 0 37 -26t43.5 -64.5t43.5 -87.5l40 -92l33 -80l21 -52l16 -12h88q6 0 11 6t9 10zM981 936q0 -78 -47 -128t-125 -50h-119v340q55 6 111 6 q82 0 131 -41t49 -127z" />
<glyph unicode="&#xaf;" horiz-adv-x="894" d="M793 1153v49l-17 15h-657l-17 -15v-49l17 -16h657z" />
<glyph unicode="&#xb0;" horiz-adv-x="526" d="M424 1194q0 68 -47 114t-115 46t-114 -46t-46 -114q0 -70 46.5 -116t115.5 -46q70 0 115 47t45 115zM354 1194q0 -39 -25.5 -67.5t-66.5 -28.5t-66.5 27.5t-25.5 68.5t26.5 68.5t67.5 27.5q39 0 64.5 -29.5t25.5 -66.5z" />
<glyph unicode="&#xb1;" horiz-adv-x="854" d="M735 788v50l-16 14h-262l2 262l-17 14h-49l-14 -14l2 -262h-264l-15 -14v-50l15 -16l264 2l-2 -262l14 -16h49l17 16l-2 262l262 -2zM752 381v47l-15 16h-602l-16 -16v-47l16 -16h602z" />
<glyph unicode="&#xb2;" horiz-adv-x="1009" d="M907 16v299l-16 17h-47l-17 -19v-227q-70 -4 -139.5 -7t-138.5 -3q-84 0 -166 1t-166 1q49 61 116 137l139 161l144 175q72 90 128.5 181t91 179t34.5 168q0 104 -25.5 176t-75.5 116t-125 62.5t-173 18.5q-74 0 -149.5 -13.5t-147.5 -31.5l-12 -16q0 -4 -1 -16.5t0 -26 t3 -23.5t8 -10q14 0 46 9t73 19.5t87 19.5t91 9q147 0 230 -67.5t83 -225.5q0 -72 -36.5 -158.5t-97 -180t-135.5 -187.5t-151 -180l-144 -162l-116 -129v-66l17 -16h725h47z" />
<glyph unicode="&#xb3;" horiz-adv-x="1019" d="M918 999q0 51 -36 87t-87 36t-87 -35.5t-36 -87.5q0 -51 35.5 -86.5t87.5 -35.5q51 0 87 35.5t36 86.5zM365 999q0 51 -36 87t-87 36t-87 -35.5t-36 -87.5q0 -51 35.5 -86.5t87.5 -35.5q51 0 87 35.5t36 86.5zM899 16v240l-16 16h-47l-17 -18v-170q-158 -8 -315 -8h-314 l35 88l66 166l85 217l94 240l93 237l79 205l55 145q22 55 22 60q0 6 -6 9t-11 3h-57l-12 -10l-531 -1364v-56l17 -16q381 2 762 0l12 6zM573 -412q0 10 -15 18l-23 11l-21 -4q-29 -45 -82 -45q-39 0 -56.5 27.5t-17.5 62.5q0 18 11.5 44t27 52.5t32.5 48.5l30 39v-2l6 10 l-27 13q-6 16 -28 16l-17 -8l-39 -51q-23 -29 -43 -59.5t-34.5 -63.5t-14.5 -59q0 -66 42 -111t110 -45q18 0 45.5 8t53.5 22.5t43 33.5t17 42zM893 954q0 -16 -11.5 -27.5t-27.5 -11.5t-27.5 11.5t-11.5 27.5t11.5 27.5t27.5 11.5t27.5 -11.5t11.5 -27.5zM340 954 q0 -16 -11.5 -27.5t-27.5 -11.5t-27.5 11.5t-11.5 27.5t11.5 27.5t27.5 11.5t27.5 -11.5t11.5 -27.5z" />
<glyph unicode="&#xb4;" horiz-adv-x="600" d="M498 1565q0 12 -17 12h-71l-15 -6q-6 -10 -30 -44l-57 -80l-68 -98l-67 -97l-50 -74q-20 -31 -21 -33q0 -16 19 -17h37l10 7l36 44l63 81l77 98l75 96l56 76q23 31 23 35z" />
<glyph unicode="&#xb5;" horiz-adv-x="989" d="M887 954l-17 17h-55l-16 -17v-528q0 -74 -24.5 -141.5t-71 -117.5t-110 -80t-140.5 -30q-72 0 -122 35t-82 89.5t-46.5 120t-14.5 124.5q0 133 4.5 264t4.5 264q0 16 -17 17h-55l-16 -17q-6 -287 -7 -569q0 -186 1 -368.5t3 -368.5l17 -17q6 0 18.5 -1t24.5 -1t21.5 4.5 t9.5 14.5q0 115 -6.5 229.5t-10.5 228.5q12 -35 45 -58t73 -37.5t82 -20.5t73 -6q113 0 193.5 32.5t132.5 94t78 147.5t26 193z" />
<glyph unicode="&#xb6;" horiz-adv-x="878" d="M776 -188v1622l-16 16l-118 4q-58 2 -118 2q-203 0 -312.5 -88t-109.5 -301q0 -209 113 -318.5t320 -109.5l10 -1q10 -1 10 3q0 2 -2 2v-831l16 -17h52l16 17v1564h51v-1564l17 -17h55zM553 723l-4 -6q4 4 -3 1t-11 -3q-164 0 -254.5 94t-90.5 258q0 170 87.5 241.5 t246.5 71.5q8 0 14.5 -1t14.5 -1v-655z" />
<glyph unicode="&#xb7;" horiz-adv-x="333" d="M231 803v98l-18 17h-94l-17 -17v-98l19 -17h94z" />
<glyph unicode="&#x2219;" horiz-adv-x="333" d="M231 803v98l-18 17h-94l-17 -17v-98l19 -17h94z" />
<glyph unicode="&#xb8;" horiz-adv-x="550" d="M449 -236q0 27 -13.5 49.5t-35 39t-46 29t-49.5 18.5h4l-78 24q0 14 7.5 30.5t15.5 32t14 26t6 14.5q0 14 -17 16t-28 2l-14 -8q-16 -27 -34.5 -65t-18.5 -70q0 -14 11 -25.5t27.5 -20t33 -14.5l28.5 -10l-4 2l28.5 -10t32 -15.5t26.5 -21.5t11 -27q0 -41 -32.5 -55 t-67.5 -14q-29 0 -51.5 7t-40 16.5l-29.5 16.5t-20 7q-4 0 -8.5 -6t-4.5 -11v-57l11 -14q31 -16 70.5 -24.5t74.5 -8.5t69.5 8t61.5 25.5t43.5 45t16.5 68.5z" />
<glyph unicode="&#xb9;" horiz-adv-x="1218" d="M1116 1270q0 10 -14 14h-53l-15 -14q0 -104 -58 -178t-169 -74q-113 0 -170 71.5t-57 180.5l-15 14h-51q-14 -4 -14 -14q0 -147 79.5 -234.5t227.5 -87.5q72 0 129 23.5t97 66.5t61.5 101.5t21.5 130.5zM678 1540q4 12 -10 16h-54q-4 -4 -10 -7t-10 -9l-404 -1034 q-29 -78 -58.5 -172t-29.5 -178q0 -96 51.5 -132t141.5 -36q18 0 44 3t51.5 9t48 16.5t36.5 24.5l23 59q4 12 -9 17q-4 0 -17 -8.5t-34.5 -19.5t-51.5 -19.5t-62 -8.5q-133 0 -134 132q0 74 28 159.5t54 153.5zM1116 -164q0 10 -14 14h-53l-15 -14q0 -104 -58 -178t-169 -74 q-113 0 -170 72t-57 180l-15 14h-51q-14 -4 -14 -14q0 -147 79.5 -234t227.5 -87q72 0 129 23.5t97 66.5t61.5 101t21.5 130z" />
<glyph unicode="&#xba;" horiz-adv-x="679" d="M578 1204q0 109 -64.5 180.5t-175.5 71.5q-125 0 -180.5 -68.5t-55.5 -187.5q0 -113 58.5 -186.5t177.5 -73.5q55 0 99 21.5t76 58.5t48.5 84t16.5 100zM528 842v37l-16 16h-346l-16 -16v-37l16 -17h346zM494 1204q0 -35 -9.5 -69.5t-29 -64.5t-49 -48t-68.5 -18 q-41 0 -71.5 16t-52 44t-33 63.5t-11.5 72.5t11.5 72t33 61.5t53 43t70.5 16.5q35 0 63.5 -17.5t49 -45t32 -60.5t11.5 -66z" />
<glyph unicode="&#xbb;" horiz-adv-x="890" d="M788 737v23l-6 10l-360 354l-12 6q-16 -2 -22.5 -26.5t-10.5 -36.5l8 -16l160 -151l160 -152l-322 -306l-6 -16q6 -16 12 -36.5t23 -27.5q4 0 30 25l65 63l83 81l85 85l70 71l39 38q0 4 2 6t2 6zM514 737h-2v23l-4 10l-361 354l-12 6q-16 -2 -22.5 -26.5t-10.5 -36.5 l9 -16l321 -303l-323 -306l-5 -18l21 -49l14 -10q4 0 31 24l64 62l83 81l85 85l70 70l38 38q0 4 2 6t2 6z" />
<glyph unicode="&#xbc;" horiz-adv-x="1302" d="M1200 1270q0 10 -14 14h-53l-15 -14q0 -104 -58.5 -178t-168.5 -74q-113 0 -170 71.5t-57 180.5l-15 14h-51q-14 -4 -14 -14q0 -147 79.5 -234.5t227.5 -87.5q72 0 129 23.5t97 66.5t61.5 101.5t21.5 130.5zM348 1122q0 51 -36 87t-87 36t-87 -35.5t-36 -87.5 q0 -51 36 -87t87 -36t87 36t36 87zM762 1540q4 12 -10 16h-54q-4 -4 -10 -7t-10 -9l-404 -1034q-29 -78 -58.5 -172t-29.5 -178q0 -96 51.5 -132t141.5 -36q18 0 44 3t51.5 9t48 16.5t36.5 24.5l23 59q4 12 -9 17q-4 0 -17 -8.5t-34.5 -19.5t-51.5 -19.5t-62 -8.5 q-133 0 -134 132q0 74 28 159.5t54 153.5zM1200 -164q0 10 -14 14h-53l-15 -14q0 -104 -58.5 -178t-168.5 -74q-113 0 -170 72t-57 180l-15 14h-51q-14 -4 -14 -14q0 -147 79.5 -234t227.5 -87q72 0 129 23.5t97 66.5t61.5 101t21.5 130zM324 1077q0 -16 -11.5 -27.5 t-27.5 -11.5t-27.5 11.5t-11.5 27.5t11 27.5t28 11.5q16 0 27.5 -11.5t11.5 -27.5z" />
<glyph unicode="&#xbd;" horiz-adv-x="1300" d="M1198 1184q0 10 -14 14h-54l-14 -14q0 -104 -58.5 -178t-168.5 -74q-113 0 -170 71.5t-57 180.5l-15 14h-51q-14 -4 -14 -14q0 -147 79.5 -234.5t227.5 -87.5q72 0 129 23.5t97 66.5t61.5 101.5t21.5 130.5zM391 1020q0 51 -36 87t-87 36t-87 -36t-36 -87t36 -87t87 -36 t87 36t36 87zM836 70q0 6 1 19t0 26.5t-4.5 25t-11.5 11.5q-6 0 -33.5 -13.5t-69.5 -31t-94.5 -31t-103.5 -13.5q-76 0 -136 15.5t-103 49.5t-65.5 89t-22.5 137q0 86 46 162t115.5 137.5t152.5 108.5t155 74l10 14l8 389l-18 16q-6 0 -19.5 1t-28.5 1q-14 0 -24 -4t-10 -14 v-174q0 -86 4 -172q-74 -35 -158 -90t-155.5 -126t-120 -153t-48.5 -170q0 -102 30 -172.5t84 -113.5t132 -61.5t174 -18.5q33 0 74 4t83 11t80 20.5t68 31.5zM1198 -147q0 10 -14 14h-54l-14 -14q0 -104 -58.5 -178t-168.5 -74q-113 0 -170 71.5t-57 180.5l-15 14h-51 q-14 -4 -14 -14q0 -147 79.5 -234.5t227.5 -87.5q72 0 129 23.5t97 66.5t61.5 101.5t21.5 130.5zM367 975q0 -16 -11.5 -27.5t-27.5 -11.5t-27.5 11t-11.5 28q0 16 11 27.5t28 11.5q16 0 27.5 -11.5t11.5 -27.5z" />
<glyph unicode="&#xbe;" horiz-adv-x="1208" d="M1106 795q0 51 -36 87t-87 36t-87 -36t-36 -87t36 -87t87 -36t87 36t36 87zM907 14v301l-16 17h-47l-17 -19v-227q-70 -4 -139.5 -7t-138.5 -3q-84 0 -166 1t-166 1q49 61 116 137l139 161l144 175q72 90 128.5 181t91 179t34.5 168q0 104 -25.5 176t-75.5 116t-125 62.5 t-173 18.5q-74 0 -149.5 -13.5t-147.5 -31.5l-12 -16q0 -4 -1 -16.5t0 -26t3 -23.5t8 -10q14 0 46 9t73 19.5t87 19.5t91 9q147 0 230 -67.5t83 -225.5q0 -72 -36.5 -158.5t-97 -180t-135.5 -187.5t-151 -180l-144 -162l-116 -129v-66l17 -16h725h47zM553 795q0 51 -36 87 t-87 36t-87 -36t-36 -87t36 -87t87 -36t87 36t36 87zM1057 -164q0 10 -15 14h-53l-14 -14q0 -104 -58.5 -178t-168.5 -74q-113 0 -170.5 72t-57.5 180l-14 14h-51q-14 -4 -15 -14q0 -147 80 -234t228 -87q72 0 129 23.5t97 66.5t61.5 101t21.5 130zM1081 750 q0 -16 -11 -27.5t-28 -11.5q-16 0 -27 11t-11 28q0 16 11 27t27 11t27.5 -11t11.5 -27zM528 750q0 -16 -11 -27.5t-28 -11.5q-16 0 -27 11t-11 28q0 16 11 27t27 11t27.5 -11t11.5 -27z" />
<glyph unicode="&#xbf;" horiz-adv-x="940" d="M672 1368v74l-13 14h-73l-13 -14v-74l13 -14h73zM836 70q0 6 1 19t0 26.5t-4.5 25t-11.5 11.5q-6 0 -33.5 -13.5t-69.5 -31t-94.5 -31t-103.5 -13.5q-76 0 -136 15.5t-103 49.5t-65.5 89t-22.5 137q0 86 46 162t115.5 137.5t152.5 108.5t155 74l10 14l8 389l-18 16 q-6 0 -19.5 1t-28.5 1q-14 0 -24 -4t-10 -14v-174q0 -86 4 -172q-74 -35 -158 -90t-155.5 -126t-120 -153t-48.5 -170q0 -102 30 -172.5t84 -113.5t132 -61.5t174 -18.5q33 0 74 4t83 11t80 20.5t68 31.5z" />
<glyph unicode="&#xc0;" horiz-adv-x="1329" d="M819 1491q0 2 -17 35l-43 81l-57 104l-58 107l-48 87q-20 37 -27 47l-14 8h-72q-16 0 -16 -16q0 -2 19 -35l50 -81l65 -105l68 -106l55 -87q24 -37 30 -47l14 -6q2 0 11 -1t17.5 0t15.5 4t7 11zM1227 12q0 6 -18 57l-44 125l-58 161l-60 166l-51 141l-29 81l-242 693 l-16 10h-78l-15 -10l-71 -201l-105 -289l-116 -323l-109 -301l-81 -222q-32 -86 -32 -88q0 -6 7.5 -9t11.5 -3h57l17 10l100 280l100 279h541l201 -559l16 -10q4 0 16.5 -1t24.5 0t22.5 4t10.5 9zM911 649h-489l250 686z" />
<glyph unicode="&#xc1;" horiz-adv-x="1329" d="M926 1929q0 16 -17 17h-71l-15 -7q-6 -10 -30 -44l-58 -79l-68 -99l-67 -96l-50 -74q-19 -30 -20 -34q0 -16 19 -16h37l12 6l33 43l63 82l78 98l75 96l56 74q23 31 23 33zM1227 12q0 6 -18 57l-44 125l-58 161l-60 166l-51 141l-29 81l-242 693l-16 10h-78l-15 -10 l-71 -201l-105 -289l-116 -323l-109 -301l-81 -222q-32 -86 -32 -88q0 -6 7.5 -9t11.5 -3h57l17 10l100 280l100 279h541l201 -559l16 -10q4 0 16.5 -1t24.5 0t22.5 4t10.5 9zM911 649h-489l250 686z" />
<glyph unicode="&#xc2;" horiz-adv-x="1329" d="M1114 1481q0 4 -24 29l-62 64l-81 82l-84 83l-70 68l-39 38q-4 4 -13 4h-106l-38 -37l-72 -68l-88 -85l-84 -83l-63 -64q-26 -26 -26 -27q0 -18 17 -19h57l174 164l178 162l352 -326q14 0 40 -0.5t32 15.5zM1227 12q0 6 -18 57l-44 125l-58 161l-60 166l-51 141l-29 81 l-242 693l-16 10h-78l-15 -10l-71 -201l-105 -289l-116 -323l-109 -301l-81 -222q-32 -86 -32 -88q0 -6 7.5 -9t11.5 -3h57l17 10l100 280l100 279h541l201 -559l16 -10q4 0 16.5 -1t24.5 0t22.5 4t10.5 9zM911 649h-489l250 686z" />
<glyph unicode="&#xc3;" horiz-adv-x="1329" d="M1106 1659l-25 37l-12 8q-4 0 -16.5 -14.5t-32 -31t-48 -30.5t-67.5 -14q-45 0 -89 15.5l-88 32.5t-89 32.5t-92 15.5q-59 0 -116.5 -36t-94.5 -79v-20q8 -10 17 -24.5t24 -14.5l14 15q14 15 38 34t54.5 34t63.5 15q45 0 89 -14t88 -31.5t89 -32t92 -14.5 q53 0 108.5 28.5t90.5 69.5zM1227 12q0 6 -18 57l-44 125l-58 161l-60 166l-51 141l-29 81l-242 693l-16 10h-78l-15 -10l-71 -201l-105 -289l-116 -323l-109 -301l-81 -222q-32 -86 -32 -88q0 -6 7.5 -9t11.5 -3h57l17 10l100 280l100 279h541l201 -559l16 -10q4 0 16.5 -1 t24.5 0t22.5 4t10.5 9zM911 649h-489l250 686z" />
<glyph unicode="&#xc4;" horiz-adv-x="1329" d="M911 1532v90l-18 16h-88l-14 -16v-90l16 -16h88zM557 1532v92l-16 16h-88l-15 -16v-92l17 -16h88zM1227 12q0 6 -18 57l-44 125l-58 161l-60 166l-51 141l-29 81l-242 693l-16 10h-78l-15 -10l-71 -201l-105 -289l-116 -323l-109 -301l-81 -222q-32 -86 -32 -88 q0 -6 7.5 -9t11.5 -3h57l17 10l100 280l100 279h541l201 -559l16 -10q4 0 16.5 -1t24.5 0t22.5 4t10.5 9zM911 649h-489l250 686z" />
<glyph unicode="&#xc5;" horiz-adv-x="1329" d="M1227 12q0 6 -18 57l-44 125l-58 161l-60 166l-51 141l-29 81l-230 658q41 16 61.5 55t20.5 80q0 61 -43 103t-104 42q-59 0 -102.5 -42t-43.5 -103q0 -41 19.5 -79t60.5 -56l-71 -199l-103 -282l-115 -315l-106 -292l-78 -215q-31 -84 -31 -86q0 -6 7.5 -9t11.5 -3h57 l17 10l100 280l100 279h541l201 -559l16 -10q4 0 16.5 -1t24.5 0t22.5 4t10.5 9zM756 1536h-2q0 -37 -21.5 -61.5t-60.5 -24.5q-37 0 -59.5 25.5t-22.5 60.5t23.5 60.5t60.5 25.5q35 0 58.5 -25.5t23.5 -60.5zM913 649h-491l250 686z" />
<glyph unicode="&#xc6;" horiz-adv-x="1617" d="M1513 10q0 6 1.5 19.5t1.5 25.5t-4.5 21.5t-14.5 9.5q-143 0 -285.5 -4t-285.5 -4l-6 643h305h49q27 0 51 -2q8 -2 16.5 -3t8.5 -3q18 0 18 16v51l-16 17h-432q0 143 -2.5 285.5t-2.5 285.5h566l8 62l-14 16h-713l-14 -10q-10 -20 -42 -93l-79 -174l-105 -227l-115 -253 l-113 -249l-97 -215l-69 -152q-26 -58 -26 -63q0 -4 6.5 -7t10.5 -3h59l15 10l317 711h321l7 -705l14 -16q322 0 645 -6zM831 797h-288l128 285l128 286h28q0 -143 2 -285.5t2 -285.5z" />
<glyph unicode="&#xc7;" horiz-adv-x="1366" d="M1262 90q0 4 1 15.5t0 23.5t-4.5 21.5t-9.5 9.5t-10 -2l-218 -65q-103 -30 -226 -30q-152 0 -265.5 51.5t-188.5 142.5t-111.5 214t-36.5 266q0 152 34.5 271.5t107.5 202.5t186.5 126t273.5 43q66 0 114.5 -5t95 -16t93.5 -26l106 -33q4 -2 6 -1t7 1q12 0 12 15v63 l-10 13q-102 41 -209 53t-215 12q-360 0 -526.5 -185.5t-166.5 -533.5q0 -147 34 -276t105.5 -227.5t183.5 -162t269 -77.5l-19 -45.5t-9 -46.5q0 -14 11 -25.5t26.5 -20t33 -14.5t27.5 -10l-2 2l28.5 -10t32 -15.5t25.5 -21.5t10 -27q0 -41 -31.5 -55t-66.5 -14 q-29 0 -51.5 7t-41 16.5t-29.5 16.5t-17 7q-14 0 -15 -17v-57l8 -14q31 -16 71 -24.5t75 -8.5t69.5 8t61.5 25.5t43 45.5t16 68q0 35 -13 54.5t-34.5 33t-46.5 23.5t-45 25h2l-76 24q0 16 6.5 32.5t14.5 33.5q55 -2 119.5 2t130 15t128 27.5t115.5 41.5z" />
<glyph unicode="&#xc8;" horiz-adv-x="888" d="M520 1497q0 2 -16 35l-42 81l-56 104l-59 107l-48 88q-20 38 -27 48l-14 8h-72q-18 0 -18 -16q0 -2 19 -35l50 -81l65 -104l68 -107l55 -87q24 -37 30 -47l14 -8q10 0 30.5 -1t20.5 15zM784 10q0 8 1 21.5t0 27t-5 22.5t-14 9q-70 0 -139.5 -5t-139.5 -5h-141 q-39 0 -78 1t-78 1v629h297q59 0 118 -4.5t118 -4.5q18 0 18 17v55l-16 17h-535v575h297q66 0 128.5 -4t127.5 -4q16 0 17 16v56l-15 16h-626l-17 -16q2 -707 0 -1414l17 -16q164 0 324.5 -1t324.5 -5z" />
<glyph unicode="&#xc9;" horiz-adv-x="888" d="M674 1929q0 14 -15 15h-73l-13 -7q-6 -10 -30 -44l-58 -79l-68 -99l-67 -96l-51 -75q-20 -31 -20 -33q0 -16 18 -16h35l12 6l36 44l63 81l77 98l75 97l56 74q23 30 23 34zM784 10q0 8 1 21.5t0 27t-5 22.5t-14 9q-70 0 -139.5 -5t-139.5 -5h-141q-39 0 -78 1t-78 1v629 h297q43 0 87 -4.5t88 -4.5q18 0 18 17v55l-16 17h-474v575h297q66 0 128.5 -4t127.5 -4q16 0 17 16v56l-15 16h-626l-17 -16q2 -707 0 -1414l17 -16q164 0 324.5 -1t324.5 -5z" />
<glyph unicode="&#xca;" horiz-adv-x="1054" d="M952 1481q0 4 -24 29l-62 64l-81 81l-84 83l-70 68q-31 29 -39 37q-4 4 -12 4h-105l-369 -354l-4 -12q0 -14 19 -15h55l352 324l351 -324q16 0 41.5 -0.5t31.5 15.5zM887 10q0 8 1 21.5t1 25.5q0 14 -4 23.5t-17 9.5q-70 0 -139.5 -5t-140.5 -5h-139q-39 0 -77 1t-79 1 v629h297q59 0 118.5 -4.5t118.5 -4.5q16 0 17 17v55l-17 17h-534v575h297q63 0 126.5 -4t129.5 -4q6 0 12 4t6 12v56l-18 16h-627l-14 -16q2 -356 2 -707v-707l14 -16q162 0 325 -1t326 -5z" />
<glyph unicode="&#xcb;" horiz-adv-x="888" d="M649 1534v90l-16 16h-88l-17 -16v-90l17 -16h88zM297 1534v92l-16 16h-88l-17 -16v-92l17 -16h88zM784 10q0 8 1 21.5t0 27t-5 22.5t-14 9q-70 0 -139.5 -5t-139.5 -5h-141q-39 0 -78 1t-78 1v629h297q59 0 118 -4.5t118 -4.5q18 0 18 17v55l-16 17h-535v575h297 q66 0 128.5 -4t127.5 -4q16 0 17 16v56l-15 16h-626l-17 -16q2 -707 0 -1414l17 -16q164 0 324.5 -1t324.5 -5z" />
<glyph unicode="&#xcc;" horiz-adv-x="557" d="M455 1475q0 2 -18 34l-43 81l-56 105l-58 106l-49 87q-20 37 -24 47l-14 9h-72q-4 0 -11.5 -3.5t-7.5 -9.5q0 -4 20 -36l49 -79l66 -105l67 -106l55 -88l30 -49l14 -8q4 0 12.5 -1t17.5 0t15.5 4.5t6.5 11.5zM387 16v1414l-16 16h-54l-16 -16v-1414l16 -16h54z" />
<glyph unicode="&#xcd;" horiz-adv-x="600" d="M498 1890q0 14 -17 15h-71l-15 -7q-6 -10 -30 -44l-58 -80l-68 -99l-67 -95q-31 -44 -50.5 -74.5t-19.5 -32.5q0 -16 17 -17h37l10 6l36 44l64 80l78 98l75 97l56 74q23 31 23 35zM346 16v1414l-14 16h-56l-16 -16v-1414l16 -16h56z" />
<glyph unicode="&#xce;" horiz-adv-x="1054" d="M952 1479q0 4 -24 29l-62 64l-81 82l-84 83l-69 68l-38 38q-8 4 -12 4h-105l-368 -356l-5 -12q-2 -6 4.5 -10.5t12.5 -4.5h57l176 162l174 164l353 -326q16 0 40.5 -0.5t30.5 15.5zM573 16v1414l-16 16h-55l-17 -16v-1414l17 -16h55z" />
<glyph unicode="&#xcf;" horiz-adv-x="675" d="M573 1505v90l-14 17h-88l-16 -17v-90l16 -16h88zM221 1505v92l-16 17h-88l-15 -17v-92l15 -16h88zM387 16v1414l-14 16h-56l-16 -16v-1414l16 -16h56z" />
<glyph unicode="&#xd0;" horiz-adv-x="284" d="M182 565v402l-16 16h-47l-17 -18v-402l17 -16h47z" />
<glyph unicode="&#xd1;" horiz-adv-x="1306" d="M1108 1677l-27 37l-12 8q-6 0 -19.5 -14t-37 -30.5t-56 -31t-75.5 -14.5q-51 0 -102.5 15.5t-101.5 33t-101.5 33t-104.5 15.5q-16 0 -55 -12.5t-80 -31t-72 -40t-31 -39.5q0 -10 11.5 -23.5t19.5 -21.5l12 -7q4 0 21.5 15.5t44.5 34t60.5 34t70.5 15.5q51 0 101.5 -14.5 t101.5 -32t102 -31.5t105 -14q57 0 119.5 27.5t103.5 68.5zM1204 16v1414l-18 16h-58l-16 -16l8 -1285l-463 651l-469 644l-12 6h-57l-17 -16v-1414l19 -16h53l16 16q-2 324 -3 641.5t-1 640.5l466 -648l470 -644l13 -6h53z" />
<glyph unicode="&#xd2;" d="M893 1511q0 2 -17 35l-43 81l-58 105l-59 106l-48 87q-20 37 -27 47l-14 8h-72q-16 0 -16 -14q0 -4 19 -37l49 -81l65 -104l66 -107l57 -87q25 -37 30 -47l15 -8h37q16 0 16 16zM1425 737q0 164 -38.5 297t-119.5 226.5t-206 144.5t-297 51t-297 -51t-206 -144.5 t-120 -226.5t-39 -297q0 -160 40 -296t123 -237.5t207 -158.5t294 -57q166 0 289 59t205.5 160.5t123.5 237.5t41 292zM1335 737h-2q0 -133 -33.5 -255t-104.5 -215t-177.5 -148.5t-253.5 -55.5q-145 0 -253 55.5t-178.5 148.5t-105 215t-34.5 255q0 141 32.5 259t101 204 t177 133t262.5 47q152 0 260.5 -47t177 -133t100 -204t31.5 -259z" />
<glyph unicode="&#xd3;" d="M1004 1927q0 16 -17 17h-72l-14 -7q-6 -10 -30 -44l-56 -79l-69 -99l-66 -96q-31 -44 -50.5 -75t-19.5 -33q0 -16 19 -16h35l12 6l33 43l63 82l78 98l75 96l56 74q23 31 23 33zM1425 737q0 164 -38.5 297t-119.5 226.5t-206 144.5t-297 51t-297 -51t-206 -144.5 t-120 -226.5t-39 -297q0 -160 40 -296t123 -237.5t207 -158.5t294 -57q166 0 289 59t205.5 160.5t123.5 237.5t41 292zM1335 737h-2q0 -133 -33.5 -255t-104.5 -215t-177.5 -148.5t-253.5 -55.5q-145 0 -253 55.5t-178.5 148.5t-105 215t-34.5 255q0 141 32.5 259t101 204 t177 133t262.5 47q152 0 260.5 -47t177 -133t100 -204t31.5 -259z" />
<glyph unicode="&#xd4;" d="M1204 1483q0 4 -24 29l-62 64l-81 82l-84 83l-70 68l-39 38q-4 4 -13 4h-106l-367 -356l-4 -12q0 -14 17 -15h57l175 162l177 164l350 -326q16 0 42 -0.5t32 15.5zM1425 737q0 164 -38.5 297t-119.5 226.5t-206 144.5t-297 51t-297 -51t-206 -144.5t-120 -226.5t-39 -297 q0 -160 40 -296t123 -237.5t207 -158.5t294 -57q166 0 289 59t205.5 160.5t123.5 237.5t41 292zM1335 737h-2q0 -133 -33.5 -255t-104.5 -215t-177.5 -148.5t-253.5 -55.5q-145 0 -253 55.5t-178.5 148.5t-105 215t-34.5 255q0 141 32.5 259t101 204t177 133t262.5 47 q152 0 260.5 -47t177 -133t100 -204t31.5 -259z" />
<glyph unicode="&#xd5;" d="M1139 1634q-4 8 -14.5 23.5t-18.5 19.5q-4 0 -16.5 -14t-32 -30.5t-49 -31t-66.5 -14.5q-45 0 -89 15.5l-89 33t-90 32.5t-92 15q-57 0 -115.5 -35.5t-93.5 -78.5v-19q8 -10 17 -25.5t22 -15.5l14 16q14 15 37.5 33.5t54.5 34t64 15.5q45 0 90 -14.5t89 -32t89 -31.5 t92 -14q53 0 106.5 28.5t88.5 69.5zM1425 737q0 164 -38.5 297t-119.5 226.5t-206 144.5t-297 51t-297 -51t-206 -144.5t-120 -226.5t-39 -297q0 -160 40 -296t123 -237.5t207 -158.5t294 -57q166 0 289 59t205.5 160.5t123.5 237.5t41 292zM1335 737h-2q0 -133 -33.5 -255 t-104.5 -215t-177.5 -148.5t-253.5 -55.5q-145 0 -253 55.5t-178.5 148.5t-105 215t-34.5 255q0 141 32.5 259t101 204t177 133t262.5 47q152 0 260.5 -47t177 -133t100 -204t31.5 -259z" />
<glyph unicode="&#xd6;" d="M1001 1532v90l-16 16h-90l-16 -16v-90l18 -16h90zM647 1532v92l-16 16h-90l-15 -16v-92l17 -16h90zM1425 737q0 164 -38.5 297t-119.5 226.5t-206 144.5t-297 51t-297 -51t-206 -144.5t-120 -226.5t-39 -297q0 -160 40 -296t123 -237.5t207 -158.5t294 -57q166 0 289 59 t205.5 160.5t123.5 237.5t41 292zM1335 737h-2q0 -133 -33.5 -255t-104.5 -215t-177.5 -148.5t-253.5 -55.5q-145 0 -253 55.5t-178.5 148.5t-105 215t-34.5 255q0 141 32.5 259t101 204t177 133t262.5 47q152 0 260.5 -47t177 -133t100 -204t31.5 -259z" />
<glyph unicode="&#xd8;" d="M1425 737q0 63 -10 145.5t-33.5 164t-63.5 152.5t-97 112q6 6 20 23l30 38q15 20 26.5 37.5t11.5 22.5q0 14 -17 14h-63l-12 -6l-62 -82q-80 47 -188.5 72.5t-200.5 25.5q-172 0 -297 -50t-207 -144.5t-121 -226.5t-39 -298q0 -68 9.5 -141.5t31 -146t54 -139 t82.5 -117.5l-27 -35l-43 -57q-23 -30 -40 -55.5t-17 -31.5q0 -14 16 -14h65l13 6l94 125q41 -33 93 -59.5t109.5 -45t115 -28.5t110.5 -10q166 0 290 58t206 159.5t121.5 237.5t39.5 294zM1335 737h-2q0 -133 -33.5 -255t-103.5 -215t-176.5 -148.5t-253.5 -55.5 q-98 0 -201.5 33t-175.5 105l782 1040q43 -45 74 -107.5t50.5 -131t29.5 -137.5t10 -128zM1108 1292h-2l-772 -1026q-33 47 -59.5 105.5t-45 121t-27.5 125t-9 119.5q0 141 32.5 260t102 204t178 132t262.5 47q86 0 176 -18.5t164 -69.5z" />
<glyph unicode="&#xd9;" horiz-adv-x="1277" d="M782 1495q0 2 -16 35l-42 81l-56 104l-59 107l-48 88q-20 38 -26 48l-15 8h-71q-18 0 -19 -16q0 -2 20 -35l49 -81l65 -104l68 -107l55 -87q24 -37 30 -47l14 -8h37q14 0 14 14zM1176 1384v46l-17 16h-57l-17 -16v-46q0 -217 -1 -434t-19 -434q-8 -96 -37 -178 t-81 -142.5t-128 -95t-180 -34.5q-115 0 -191.5 31.5t-126 90t-75 142.5t-33.5 188q-20 227 -20 455v457l-17 16h-57l-17 -16v-58q0 -215 3.5 -429t19.5 -429q10 -127 41 -224t91 -165t153.5 -102.5t228.5 -34.5q125 0 217 39t155.5 108.5t98.5 166.5t43 214 q16 217 19.5 434t3.5 434z" />
<glyph unicode="&#xda;" horiz-adv-x="1277" d="M885 1931q0 16 -17 17h-71l-15 -6q-6 -10 -30 -45l-57 -79l-68 -99l-67 -96l-50 -75q-20 -31 -21 -32q0 -16 17 -17h37l12 6l34 43l64 82l78 99l75 95l56 74q23 31 23 33zM1176 1384v46l-17 16h-57l-17 -16v-46q0 -217 -1 -434t-19 -434q-8 -96 -37 -178t-81 -142.5 t-128 -95t-180 -34.5q-115 0 -191.5 31.5t-126 90t-75 142.5t-33.5 188q-20 227 -20 455v457l-17 16h-57l-17 -16v-58q0 -215 3.5 -429t19.5 -429q10 -127 41 -224t91 -165t153.5 -102.5t228.5 -34.5q125 0 217 39t155.5 108.5t98.5 166.5t43 214q16 217 19.5 434t3.5 434z " />
<glyph unicode="&#xdb;" horiz-adv-x="1277" d="M1071 1483q0 4 -24 29l-62 64l-81 81l-84 83l-69 68l-38 37q-8 4 -13 4h-106l-367 -354l-6 -12q0 -14 17 -15h59l175 161l175 163l352 -324q16 0 41 -0.5t31 15.5zM1176 1384v46l-17 16h-57l-17 -16v-46q0 -217 -1 -434t-19 -434q-8 -96 -37 -178t-81 -142.5t-128 -95 t-180 -34.5q-115 0 -191.5 31.5t-126 90t-75 142.5t-33.5 188q-20 227 -20 455v457l-17 16h-57l-17 -16v-58q0 -215 3.5 -429t19.5 -429q10 -127 41 -224t91 -165t153.5 -102.5t228.5 -34.5q125 0 217 39t155.5 108.5t98.5 166.5t43 214q16 217 19.5 434t3.5 434z" />
<glyph unicode="&#xdc;" horiz-adv-x="1277" d="M872 1532v90l-14 16h-88l-16 -16v-90l16 -16h88zM520 1532v92l-16 16h-88l-15 -16v-92l15 -16h88zM1176 1384v46l-17 16h-57l-17 -16v-46q0 -217 -1 -434t-19 -434q-8 -96 -37 -178t-81 -142.5t-128 -95t-180 -34.5q-115 0 -191.5 31.5t-126 90t-75 142.5t-33.5 188 q-20 227 -20 455v457l-17 16h-57l-17 -16v-58q0 -215 3.5 -429t19.5 -429q10 -127 41 -224t91 -165t153.5 -102.5t228.5 -34.5q125 0 217 39t155.5 108.5t98.5 166.5t43 214q16 217 19.5 434t3.5 434z" />
<glyph unicode="&#xdd;" horiz-adv-x="1046" d="M512 2016q0 12 -17 12h-71l-15 -6q-6 -10 -30 -44l-57 -80l-68 -98l-67 -97l-50 -74q-20 -31 -21 -33q0 -16 19 -17h37l10 7l36 44l63 81l77 98l75 96l56 76q23 31 23 35zM944 1436q0 4 -6 7t-10 3h-54l-14 -10l-170 -366l-170 -365l-327 731l-15 10q-4 0 -16 1 q-6 1 -12.5 0.5t-13.5 -0.5q-13 -1 -23.5 -3t-10.5 -8t25 -64l62 -141l84 -183l87 -190l72 -158q31 -68 41 -88v-596l14 -16h60l16 16v600l40 83l74 156l89 188l87 186l66 143q25 58 25 64z" />
<glyph unicode="&#xdf;" horiz-adv-x="929" d="M827 285q0 104 -25.5 170.5t-64.5 109.5t-84 72t-84 57.5t-64.5 64.5t-25.5 95q0 57 28 91t59.5 63.5t59 66.5t27.5 103q0 55 -21.5 105t-58 88t-86 61.5t-104.5 23.5q-84 0 -137 -27.5t-86 -74.5t-45.5 -110.5t-12.5 -137.5v-1090l19 -16h55l17 16v1090q0 49 7 98 t28.5 88t59.5 63.5t97 24.5q37 0 69.5 -18.5t57.5 -48t40 -65.5t15 -70q0 -45 -27 -75l-60 -62q-32 -32 -59.5 -74.5t-27.5 -112.5q0 -84 25.5 -133t64.5 -82t84 -58.5t84 -61.5t64.5 -90t25.5 -144q0 -96 -59 -159t-158 -63q-31 0 -59.5 8.5t-55 18.5l-54 19.5t-56.5 13.5 l-14 -17v-63l12 -16q53 -20 111.5 -29.5t117.5 -9.5q135 0 218 80t83 217z" />
<glyph unicode="&#xe0;" horiz-adv-x="917" d="M625 1143q0 2 -18 35l-43 80l-56 105l-58 106l-49 89q-20 38 -26 48l-15 8h-71q-16 0 -17 -17q0 -2 20 -34l49 -81l66 -105l67 -106l55 -87q24 -37 30 -47l14 -9q8 0 30 -0.5t22 15.5zM815 16v680q0 86 -22.5 140.5t-64.5 87t-103.5 45t-139.5 12.5q-37 0 -78.5 -5 t-83.5 -15.5t-82 -26.5t-71 -37l-6 -14q0 -6 -1 -18.5t0 -27t4 -24.5t11 -10q4 0 32 16.5t70 35.5t96 35.5t111 16.5q113 0 178.5 -44t65.5 -167v-110q-57 2 -127 2q-68 0 -137.5 -6.5t-135 -23.5t-116.5 -52t-82 -89.5t-31 -135.5q0 -131 82 -212t213 -81q117 0 201 57 t135 160v-189l17 -16h49zM729 516h-2q0 -27 -1 -53.5t-3 -52.5q-6 -68 -30.5 -130.5t-65.5 -111.5t-99.5 -78t-132.5 -29q-45 0 -82 18.5t-63.5 48.5t-40.5 70t-14 83q0 76 33.5 123t86 73.5t117 34.5t127.5 8h84q43 0 86 -4z" />
<glyph unicode="&#xe1;" horiz-adv-x="917" d="M698 1565q0 12 -16 12h-72l-14 -6q-6 -10 -30 -44l-56 -80l-69 -98l-66 -97q-31 -44 -50.5 -74.5t-19.5 -32.5q0 -16 19 -17h34l13 7l35 44l63 81l77 98l74 96l56 76q22 31 22 35zM815 16v680q0 86 -22.5 140.5t-64.5 87t-103.5 45t-139.5 12.5q-37 0 -78.5 -5 t-83.5 -15.5t-82 -26.5t-71 -37l-6 -14q0 -6 -1 -18.5t0 -27t4 -24.5t11 -10q4 0 32 16.5t70 35.5t96 35.5t111 16.5q113 0 178.5 -44t65.5 -167v-110q-57 2 -127 2q-68 0 -137.5 -6.5t-135 -23.5t-116.5 -52t-82 -89.5t-31 -135.5q0 -131 82 -212t213 -81q117 0 201 57 t135 160v-189l17 -16h49zM729 516h-2q0 -27 -1 -53.5t-3 -52.5q-6 -68 -30.5 -130.5t-65.5 -111.5t-99.5 -78t-132.5 -29q-45 0 -82 18.5t-63.5 48.5t-40.5 70t-14 83q0 76 33.5 123t86 73.5t117 34.5t127.5 8h84q43 0 86 -4z" />
<glyph unicode="&#xe2;" horiz-adv-x="1054" d="M952 1147q0 4 -24 31l-62 64l-81 81l-84 83l-69 69l-38 36q-8 4 -12 5h-105l-368 -357l-5 -12q-4 -16 17 -17h55l352 328l353 -328q16 0 40.5 -1.5t30.5 18.5zM842 16v680q0 86 -22.5 140.5t-64.5 87t-103.5 45t-137.5 12.5q-37 0 -79 -5t-84 -15.5t-81 -26.5t-69 -37 l-6 -14q0 -6 -1 -18.5t0 -27t4 -24.5t11 -10q2 0 28.5 16.5t69.5 35.5t96.5 35.5t110.5 16.5q113 0 178.5 -44t65.5 -167v-110q-57 2 -127 2q-68 0 -137.5 -6.5t-135 -23.5t-115.5 -52t-81 -89.5t-31 -135.5q0 -131 81 -212t212 -81q117 0 203 56t133 161v-189l16 -16h51z M756 516q-2 -27 -2 -53q0 -27 -2 -53q-4 -68 -29 -131.5t-67 -111.5t-100 -77t-132 -29q-45 0 -82 18.5t-63.5 48.5t-41 70t-14.5 83q0 76 34 123t86 72.5t116.5 34.5t126.5 9h84q43 0 86 -4z" />
<glyph unicode="&#xe3;" horiz-adv-x="987" d="M885 1346q-6 10 -14.5 27.5t-22.5 17.5q-4 0 -15.5 -14.5t-32 -32t-48 -32t-64.5 -14.5q-45 0 -89 15.5t-88 33t-90 33t-93 15.5q-57 0 -114.5 -33t-94.5 -76v-22q4 -4 16 -22.5t15 -18.5q8 0 23 15t39 33.5t52.5 34t63.5 15.5q45 0 90 -14.5t89 -33t89 -32.5t92 -14 q53 0 106.5 28.5t88.5 69.5zM813 16v680q0 86 -22.5 140.5t-64.5 87t-102.5 45t-138.5 12.5q-37 0 -78.5 -5t-83.5 -15.5t-81 -26.5t-70 -37l-6 -14q0 -6 -1 -18.5t0 -27t4 -24.5t11 -10q2 0 30 16.5t71 35.5t96 35.5t110 16.5q113 0 178.5 -44t65.5 -167v-110q-57 2 -127 2 q-68 0 -137.5 -6.5t-135 -23.5t-116.5 -52t-82 -89.5t-31 -135.5q0 -131 82 -212t213 -81q115 0 201 56t135 161v-189l17 -16h51zM729 516h-2q-2 -27 -2 -53q0 -27 -2 -53q-4 -68 -28.5 -131.5t-66.5 -111.5t-100.5 -77t-132.5 -29q-45 0 -82 18.5t-63.5 48.5t-40.5 70 t-14 83q0 76 33.5 123t86 72.5t118 34.5t126.5 9h84q43 0 86 -4z" />
<glyph unicode="&#xe4;" horiz-adv-x="917" d="M700 1178v90l-18 16h-88l-14 -16v-90l16 -17h88zM348 1178v92l-16 16h-90l-15 -16v-92l17 -17h90zM815 16v680q0 86 -22.5 140.5t-64.5 87t-103.5 45t-139.5 12.5q-37 0 -78.5 -5t-83.5 -15.5t-82 -26.5t-71 -37l-6 -14q0 -6 -1 -18.5t0 -27t4 -24.5t11 -10q4 0 32 16.5 t70 35.5t96 35.5t111 16.5q113 0 178.5 -44t65.5 -167v-110q-57 2 -127 2q-68 0 -137.5 -6.5t-135 -23.5t-116.5 -52t-82 -89.5t-31 -135.5q0 -131 82 -212t213 -81q117 0 201 57t135 160v-189l17 -16h49zM729 516h-2q0 -27 -1 -53.5t-3 -52.5q-6 -68 -30.5 -130.5 t-65.5 -111.5t-99.5 -78t-132.5 -29q-45 0 -82 18.5t-63.5 48.5t-40.5 70t-14 83q0 76 33.5 123t86 73.5t117 34.5t127.5 8h84q43 0 86 -4z" />
<glyph unicode="&#xe5;" horiz-adv-x="917" d="M659 1194q0 68 -47 114t-114 46q-66 0 -114 -46t-48 -114q0 -70 46 -116t118 -46q68 0 113.5 47t45.5 115zM815 16v680q0 86 -22.5 140.5t-64.5 87t-103.5 45t-139.5 12.5q-37 0 -78.5 -5t-83.5 -15.5t-82 -26.5t-71 -37l-6 -14q0 -6 -1 -18.5t0 -27t4 -24.5t11 -10 q4 0 32 16.5t70 35.5t96 35.5t111 16.5q113 0 178.5 -44t65.5 -167v-110q-57 2 -127 2q-68 0 -137.5 -6.5t-135 -23.5t-116.5 -52t-82 -89.5t-31 -135.5q0 -131 82 -212t213 -81q117 0 201 57t135 160v-189l17 -16h49zM592 1194h-2q0 -41 -24.5 -68.5t-67.5 -27.5 q-41 0 -66.5 27.5t-25.5 68.5t26.5 68.5t67.5 27.5t66.5 -27.5t25.5 -68.5zM729 516q-2 -27 -3 -53.5t-3 -52.5q-6 -68 -30.5 -130.5t-65.5 -111.5t-99.5 -78t-132.5 -29q-45 0 -82 18.5t-63.5 48.5t-40.5 70t-14 83q0 76 33.5 123t86 73.5t117 34.5t127.5 8h84q43 0 86 -4z " />
<glyph unicode="&#xe6;" horiz-adv-x="1638" d="M1536 600q0 86 -26.5 156.5t-76 122t-119 79t-157.5 27.5q-111 0 -204 -48t-158 -140q-16 45 -49 79.5t-75 59.5t-89 37t-93 12q-80 0 -171 -29.5t-156 -76.5l-6 -13q0 -6 -1 -16t0 -20.5t4 -18.5t11 -8q4 0 31.5 17.5t72.5 37t100.5 36.5t114.5 17q111 0 171.5 -49 t60.5 -166v-110q-88 8 -195.5 6t-202 -31t-158 -95.5t-63.5 -186.5q0 -63 20.5 -116.5t57.5 -92.5t89.5 -60.5t117.5 -21.5q131 0 231.5 74.5t135.5 201.5q51 -139 163.5 -207.5t258.5 -68.5q37 0 77.5 5t82.5 14t82 23.5t71 32.5l6 15q0 4 1 16t1 25q0 14 -3 24.5t-11 10.5 q-2 0 -30 -14.5t-71 -32t-97 -32t-109 -14.5q-92 0 -161 31t-116 86t-70.5 130t-23.5 161v45q180 -2 355 0t356 10l16 17q2 16 3 30.5t1 28.5zM1450 596q-324 -12 -645 -12q6 66 36.5 125t79 104t110 71.5t126.5 26.5q72 0 125 -24.5t89 -67.5t55.5 -100t23.5 -123zM719 516 q-2 -80 -16.5 -162t-50.5 -146.5t-100.5 -105.5t-164.5 -41q-94 0 -147.5 63.5t-53.5 154.5q0 76 34 124t86 74.5t116.5 35.5t126.5 9q86 0 170 -6z" />
<glyph unicode="&#xe7;" horiz-adv-x="980" d="M874 78q0 16 2.5 41.5t-16.5 34.5l-29 -15q-29 -14 -72.5 -31.5t-100 -32t-113.5 -14.5q-98 0 -166 37t-111 98.5t-62.5 142.5t-19.5 169q0 86 21.5 160.5t66.5 128t112 84t159 30.5q45 0 93 -10t89 -23.5l69.5 -23.5t37.5 -10q12 0 12 14v64l-10 14q-66 25 -144 37 t-147 12q-111 0 -194 -33.5t-138 -97t-83 -152t-28 -194.5q0 -109 21.5 -202t72 -161.5t130.5 -110.5t196 -46q-10 -20 -18 -42t-8 -44q0 -14 11 -25.5t26.5 -20t33 -14.5t27.5 -10l-2 2l28.5 -10t32 -15.5t25.5 -21.5t10 -27q0 -41 -31.5 -55t-66.5 -14q-27 0 -50.5 7 t-41.5 16l-32 17q-13 7 -17 7q-12 0 -13 -17v-57l6 -14q33 -16 73 -24.5t75 -8.5t69.5 8t61.5 25.5t43 45.5t16 68q0 29 -13 50.5t-34.5 39t-46 29t-49.5 17.5h2l-74 24q0 16 6.5 32.5t14.5 33.5q66 4 143.5 22.5t136.5 50.5z" />
<glyph unicode="&#xe8;" horiz-adv-x="1007" d="M678 1143q0 2 -16 35l-42 80l-57 105l-58 106l-48 89q-20 38 -27 48l-14 8h-72q-18 0 -18 -17q0 -2 19 -34l49 -81l66 -105l67 -106l56 -87q24 -37 29 -47l15 -9q10 0 30.5 -0.5t20.5 15.5zM905 516q0 92 -17.5 176t-58.5 149.5t-111.5 104.5t-176.5 39t-188.5 -35 t-137.5 -96t-84 -147t-29 -189q0 -119 22.5 -216t74 -166.5t136.5 -108.5t212 -39q37 0 78 5t82 14t80.5 23.5t70.5 32.5l8 15q0 6 1 18.5t0 24.5t-4 22.5t-11 10.5q-4 0 -31.5 -14.5t-70.5 -32t-95.5 -32t-107.5 -14.5q-96 0 -164 33t-111 89.5t-63.5 133t-20.5 166.5 q176 0 350.5 5.5l350.5 11.5zM819 575q-143 -10 -285.5 -13t-285.5 -3h-60q2 76 28 141.5t72 111.5t110.5 72.5t142.5 26.5q70 0 122 -28.5t85.5 -76.5t51 -109t19.5 -122z" />
<glyph unicode="&#xe9;" horiz-adv-x="1007" d="M766 1565q0 12 -16 12h-72l-14 -6q-6 -10 -31 -44l-58 -80l-68 -98l-67 -97l-50 -73q-19 -30 -19 -34q0 -16 16 -17h37l12 7l36 44l64 81l76 98l75 96l56 76q23 31 23 35zM905 516q0 92 -17.5 176t-58.5 149.5t-111.5 104.5t-176.5 39t-188.5 -35t-137.5 -96t-84 -147 t-29 -189q0 -119 22.5 -216t74 -166.5t136.5 -108.5t212 -39q37 0 78 5t82 14t80.5 23.5t70.5 32.5l8 15q0 6 1 18.5t0 24.5t-4 22.5t-11 10.5q-4 0 -31.5 -14.5t-70.5 -32t-95.5 -32t-107.5 -14.5q-96 0 -164 33t-111 89.5t-63.5 133t-20.5 166.5q176 0 350.5 5.5 l350.5 11.5zM819 575q-143 -10 -285.5 -13t-285.5 -3h-60q2 76 28 141.5t72 111.5t110.5 72.5t142.5 26.5q70 0 122 -28.5t85.5 -76.5t51 -109t19.5 -122z" />
<glyph unicode="&#xea;" horiz-adv-x="1073" d="M971 1147q0 4 -25 31l-61 64l-81 81l-84 83l-70 69l-38 36q-8 4 -12 5h-106l-367 -357l-6 -12q0 -16 16 -17h58l352 328l350 -328q16 0 42 -1.5t32 18.5zM903 516q0 92 -17.5 176t-58.5 149.5t-111.5 104.5t-176.5 39t-188.5 -35t-137.5 -96t-83 -147t-28 -189 q0 -117 21.5 -215t74 -167.5t136.5 -108.5t211 -39q37 0 78 5t81.5 14t80.5 23.5t71 32.5l8 15q0 6 1 18.5t0 24.5t-4 22.5t-11 10.5q-2 0 -30.5 -14.5t-71.5 -32t-96.5 -32t-106.5 -14.5q-96 0 -164 33t-111 90.5t-62.5 134t-21.5 164.5q176 0 350.5 5.5l350.5 11.5z M819 575q-143 -10 -286.5 -13t-286.5 -3h-60q2 76 28 141.5t72 111.5t109.5 72.5t143.5 26.5q72 0 123 -28.5t84.5 -76.5t51 -109t21.5 -122z" />
<glyph unicode="&#xeb;" horiz-adv-x="1007" d="M745 1178v90l-16 16h-88l-14 -16v-90l14 -17h88zM395 1178v92l-16 16h-90l-15 -16v-92l15 -17h90zM905 516q0 92 -17.5 176t-58.5 149.5t-111.5 104.5t-176.5 39t-188.5 -35t-137.5 -96t-84 -147t-29 -189q0 -119 22.5 -216t74 -166.5t136.5 -108.5t212 -39q37 0 78 5 t82 14t80.5 23.5t70.5 32.5l8 15q0 6 1 18.5t0 24.5t-4 22.5t-11 10.5q-4 0 -31.5 -14.5t-70.5 -32t-95.5 -32t-107.5 -14.5q-96 0 -164 33t-111 89.5t-63.5 133t-20.5 166.5q176 0 350.5 5.5l350.5 11.5zM819 575q-143 -10 -285.5 -13t-285.5 -3h-60q2 76 28 141.5 t72 111.5t110.5 72.5t142.5 26.5q70 0 122 -28.5t85.5 -76.5t51 -109t19.5 -122z" />
<glyph unicode="&#xec;" horiz-adv-x="557" d="M455 1143q0 2 -17 35l-42 80l-56 105l-58 106l-49 89q-20 38 -26 48l-14 8h-72q-18 0 -19 -17q0 -2 20 -34l49 -81l66 -105l67 -106l55 -87q24 -37 30 -47l14 -9q10 0 31 -0.5t21 15.5zM344 16v938l-16 17h-54l-16 -17v-938l16 -16h54z" />
<glyph unicode="&#xed;" horiz-adv-x="600" d="M498 1565q0 12 -17 12h-71l-15 -6q-6 -10 -30 -44l-57 -80l-68 -98l-67 -97l-50 -74q-20 -31 -21 -33q0 -16 19 -17h37l10 7l36 44l63 81l77 98l75 96l56 76q23 31 23 35zM324 16v938l-17 17h-53l-16 -17v-938l18 -16h53z" />
<glyph unicode="&#xee;" horiz-adv-x="1054" d="M952 1147q0 4 -24 31l-62 64l-81 81l-84 83l-70 69q-31 29 -39 36q-4 4 -12 5h-105l-369 -357l-4 -12q0 -16 19 -17h55l352 328l353 -328q16 0 40.5 -1.5t30.5 18.5zM528 16v938l-16 17h-53l-17 -17v-938l19 -16h53z" />
<glyph unicode="&#xef;" horiz-adv-x="677" d="M575 1178v90l-16 16h-88l-16 -16v-90l18 -17h88zM221 1178v92l-16 16h-88l-15 -16v-92l17 -17h88zM375 16v938l-19 17h-55l-14 -17v-938l16 -16h55z" />
<glyph unicode="&#xf0;" horiz-adv-x="335" d="M233 4v98l-18 17h-96l-17 -17v-98l19 -16h96z" />
<glyph unicode="&#xf1;" horiz-adv-x="1011" d="M909 1346q-6 10 -14 27.5t-21 17.5q-4 0 -15 -14.5t-32.5 -32t-50 -32t-65.5 -14.5q-45 0 -89 15.5t-88.5 33t-90.5 33t-93 15.5q-57 0 -114.5 -33t-94.5 -76v-22q4 -4 16.5 -22.5t14.5 -18.5q8 0 23.5 15t39 33.5t52 34t63.5 15.5q45 0 90 -14.5t90 -33t89.5 -32.5 t91.5 -14q53 0 107 28.5t89 69.5zM901 16v625q0 90 -27.5 154.5t-79 105.5t-121 60.5t-155.5 19.5q-100 0 -188 -44t-146 -130l-6 147l-16 17h-43l-17 -17v-938l19 -16h51l16 16v643q0 53 35 98.5t85 79t107.5 52t104.5 18.5q61 0 116.5 -16.5t95.5 -50t63.5 -82.5 t23.5 -117v-625l17 -16h51z" />
<glyph unicode="&#xf2;" horiz-adv-x="1112" d="M715 1143q0 2 -18 35l-43 80l-56 105l-58 106l-48 89q-20 38 -27 48l-14 8h-72q-16 0 -17 -17q0 -2 20 -34l49 -81l66 -105l67 -106l56 -87q24 -37 29 -47l15 -9q8 0 29.5 -0.5t21.5 15.5zM1010 489q0 113 -26 205t-80 156.5t-140 99.5t-207 35t-207 -35t-141 -99.5 t-81 -155.5t-26 -206q0 -109 28 -200.5t85 -158.5t143 -104.5t201 -37.5t200 37.5t140 104.5t83 158.5t28 200.5zM926 489h-2q0 -86 -21.5 -163.5t-66.5 -136t-115 -93.5t-164 -35t-163.5 35t-116 93.5t-69 136t-22.5 163.5q0 90 21.5 168t66.5 134.5t116 88t169 31.5 t168 -31.5t114 -89t64.5 -134.5t20.5 -167z" />
<glyph unicode="&#xf3;" horiz-adv-x="1112" d="M815 1565q0 12 -16 12h-72l-14 -6q-6 -10 -31 -44l-57 -80l-69 -98l-67 -97l-50 -73q-19 -30 -19 -34q0 -16 18 -17h37l12 7l35 44l64 81l77 98l73 96l57 76q22 31 22 35zM1010 489q0 113 -26 205t-80 156.5t-140 99.5t-207 35t-207 -35t-141 -99.5t-81 -155.5t-26 -206 q0 -109 28 -200.5t85 -158.5t143 -104.5t201 -37.5t200 37.5t140 104.5t83 158.5t28 200.5zM926 489h-2q0 -86 -21.5 -163.5t-66.5 -136t-115 -93.5t-164 -35t-163.5 35t-116 93.5t-69 136t-22.5 163.5q0 90 21.5 168t66.5 134.5t116 88t169 31.5t168 -31.5t114 -89 t64.5 -134.5t20.5 -167z" />
<glyph unicode="&#xf4;" horiz-adv-x="1112" d="M954 1147q0 4 -24 31l-62 64l-81 81l-84 83l-69 69l-38 36q-8 4 -12 5h-107l-368 -357l-5 -12q-4 -16 17 -17h57l176 165l176 163l351 -328q16 0 41.5 -1.5t31.5 18.5zM1010 489q0 113 -26 205t-80 156.5t-139 99.5t-206 35t-207 -35t-141 -99.5t-81 -155.5t-26 -206 q0 -109 28 -200.5t85 -158.5t142 -104.5t200 -37.5t200 37.5t140 104.5t83 158.5t28 200.5zM926 489q0 -86 -21.5 -163.5t-66.5 -136t-115 -93.5t-164 -35t-163.5 35t-116 93.5t-69 136t-22.5 163.5q0 90 21.5 168t65.5 134.5t115 88t169 31.5t168 -31.5t114 -89 t64.5 -134.5t20.5 -167z" />
<glyph unicode="&#xf5;" horiz-adv-x="1112" d="M936 1346q-6 10 -14.5 27.5t-20.5 17.5q-4 0 -15.5 -14.5t-33 -32t-50 -32t-65.5 -14.5q-45 0 -89 15.5t-88 33t-90 33t-93 15.5q-57 0 -114.5 -34t-94.5 -75v-24l27 -35l20 2q29 35 73 63.5t89 28.5t90 -14.5t90 -33t89 -32.5t91 -14q53 0 107.5 28.5t89.5 69.5z M1010 489q0 113 -26 205t-80 156.5t-140 99.5t-207 35t-207 -35t-141 -99.5t-81 -155.5t-26 -206q0 -109 28 -200.5t85 -158.5t143 -104.5t201 -37.5t200 37.5t140 104.5t83 158.5t28 200.5zM926 489h-2q0 -86 -21.5 -163.5t-66.5 -136t-115 -93.5t-164 -35t-163.5 35 t-116 93.5t-69 136t-22.5 163.5q0 90 21.5 168t66.5 134.5t116 88t169 31.5t168 -31.5t114 -89t64.5 -134.5t20.5 -167z" />
<glyph unicode="&#xf6;" horiz-adv-x="1112" d="M784 1178v90l-16 16h-88l-16 -16v-90l18 -17h88zM430 1178v92l-14 16h-90l-17 -16v-92l19 -17h90zM1010 489q0 113 -26 205t-80 156.5t-140 99.5t-207 35t-207 -35t-141 -99.5t-81 -155.5t-26 -206q0 -109 28 -200.5t85 -158.5t143 -104.5t201 -37.5t200 37.5t140 104.5 t83 158.5t28 200.5zM926 489h-2q0 -86 -21.5 -163.5t-66.5 -136t-115 -93.5t-164 -35t-163.5 35t-116 93.5t-69 136t-22.5 163.5q0 90 21.5 168t66.5 134.5t116 88t169 31.5t168 -31.5t114 -89t64.5 -134.5t20.5 -167z" />
<glyph unicode="&#xf7;" horiz-adv-x="837" d="M479 946v98l-16 17h-96l-17 -17v-98l19 -14h96zM735 719v49l-16 16h-602l-15 -16v-49l17 -17h602zM477 449v98l-14 16h-96l-17 -16v-98l19 -17h96z" />
<glyph unicode="&#xf8;" horiz-adv-x="1112" d="M1010 489q0 43 -6.5 96.5t-19.5 105.5t-36.5 99.5t-60.5 77.5q6 6 17 20l24 27q12 14 21 27.5t9 20.5q0 14 -16 14h-53l-12 -6l-43 -58q-55 35 -133 53.5t-144 18.5q-121 0 -207 -35t-141 -99.5t-81 -155.5t-26 -206q0 -43 6.5 -94t20.5 -101t37.5 -95t58.5 -76 q-4 -6 -17 -21.5l-27 -33.5l-23 -34q-10 -15 -11 -20q0 -14 15 -14h53l12 6q10 16 25 33l29 33q57 -37 134 -60.5t144 -23.5q115 0 200 37.5t140 105.5t83 158.5t28 199.5zM926 489h-2q0 -86 -21.5 -163.5t-66.5 -136t-115 -93.5t-164 -35q-57 0 -120.5 16.5t-108.5 57.5 l255 332l255 332q43 -61 65.5 -148.5t22.5 -161.5zM782 848h-2l-506 -660q-41 61 -64.5 145.5t-23.5 155.5q0 90 21.5 168t66.5 134.5t116 88t169 31.5q57 0 116.5 -14t106.5 -49z" />
<glyph unicode="&#xf9;" horiz-adv-x="989" d="M664 1143q0 2 -17 35l-42 80l-56 105l-59 106l-48 89q-20 38 -26 48l-15 8h-71q-18 0 -19 -17q0 -2 20 -34l49 -81l65 -105l68 -106l55 -87q24 -37 30 -47l14 -9q10 0 31 -0.5t21 15.5zM887 16v938l-17 17h-53l-14 -17q0 -137 -1 -272t-1 -272q0 -72 -29 -135.5 t-76 -110.5t-111.5 -75t-133.5 -28q-74 0 -124.5 27t-82 73t-45 104.5t-13.5 123.5l7 565q-4 14 -15 17h-53l-16 -17q-6 -283 -7 -565q0 -84 19.5 -157.5t61.5 -128t108.5 -85t159.5 -30.5q121 0 211 56t143 161l2 -189l16 -16h47z" />
<glyph unicode="&#xfa;" horiz-adv-x="989" d="M745 1565q0 12 -16 12h-72l-14 -6q-6 -10 -31 -44l-56 -80l-69 -98l-66 -97l-50 -74q-20 -31 -21 -33q0 -16 17 -17h36l13 7l36 44l63 81l77 98l75 96l56 76q22 31 22 35zM887 16v938l-17 17h-53l-14 -17q0 -137 -1 -272t-1 -272q0 -72 -29 -135.5t-76 -110.5t-111.5 -75 t-133.5 -28q-74 0 -124.5 27t-82 73t-45 104.5t-13.5 123.5l7 565q-4 14 -15 17h-53l-16 -17q-6 -283 -7 -565q0 -84 19.5 -157.5t61.5 -128t108.5 -85t159.5 -30.5q121 0 211 56t143 161l2 -189l16 -16h47z" />
<glyph unicode="&#xfb;" horiz-adv-x="1052" d="M950 1147q0 4 -24 31l-62 64l-80 81l-83 83l-69 69l-38 36q-8 4 -12 5h-105l-368 -357l-5 -12q-4 -16 17 -17h55l352 328l351 -328q16 0 40.5 -1.5t30.5 18.5zM891 16v938l-17 17h-51l-16 -17q0 -137 -1 -272t-1 -272q0 -72 -27.5 -134.5t-76 -110.5t-112 -76t-132.5 -28 q-74 0 -124 27t-81 73t-45 104.5t-14 123.5q0 25 1 72t3 103l4 118q2 61 2 115q0 55 -1 97t-3 60q-4 16 -17 17h-53l-14 -17q-6 -283 -6 -565q0 -84 19 -157.5t61 -128t107.5 -85t160.5 -30.5q119 0 209 56t143 161l4 -189l16 -16h45z" />
<glyph unicode="&#xfc;" horiz-adv-x="989" d="M721 1178v90l-14 16h-89l-16 -16v-90l16 -17h89zM371 1178v92l-15 16h-90l-16 -16v-92l16 -17h90zM887 16v938l-17 17h-53l-14 -17q0 -137 -1 -272t-1 -272q0 -72 -29 -135.5t-76 -110.5t-111.5 -75t-133.5 -28q-74 0 -124.5 27t-82 73t-45 104.5t-13.5 123.5l7 565 q-4 14 -15 17h-53l-16 -17q-6 -283 -7 -565q0 -84 19.5 -157.5t61.5 -128t108.5 -85t159.5 -30.5q121 0 211 56t143 161l2 -189l16 -16h47z" />
<glyph unicode="&#xfd;" horiz-adv-x="1118" d="M512 1545q0 12 -17 12h-71l-15 -6q-6 -10 -30 -44l-57 -80l-68 -98l-67 -97l-50 -74q-20 -31 -21 -33q0 -16 19 -17h37l10 7l36 44l63 81l77 98l75 96l56 76q23 31 23 35zM1016 961q0 4 -6 7t-11 3h-63l-14 -10l-187 -423l-188 -423l-354 846l-15 10q-4 0 -16 1 q-6 1 -12.5 0.5t-13.5 -0.5q-13 -1 -23.5 -4t-10.5 -10q0 -4 27 -69l68 -164l90 -214l92 -219l76 -179l41 -95q-4 -10 -21 -44l-37 -78l-44 -95l-43 -92l-31.5 -72.5t-12.5 -33.5q0 -6 6 -8.5t11 -2.5h61l14 9q8 20 40 88l77 166l99 217l110 240l108 238l93 206l65 145 q25 56 25 60z" />
<glyph unicode="&#xff;" horiz-adv-x="1118" d="M782 1178v90l-16 16h-88l-16 -16v-90l16 -17h88zM428 1178v92l-14 16h-90l-17 -16v-92l17 -17h90zM1016 961q0 4 -6 7t-11 3h-63l-14 -10l-187 -423l-188 -423l-354 846l-15 10q-4 0 -16 1t-25.5 0t-24 -4t-10.5 -10q0 -4 27 -69l68 -164l90 -214l92 -219l76 -179l41 -95 q-4 -10 -21 -44l-37 -78l-44 -95l-43 -92l-31.5 -72.5t-12.5 -33.5q0 -6 6 -8.5t11 -2.5h61l14 9q8 20 40 88l77 166l99 217l110 240l108 238l93 206l65 145q25 56 25 60z" />
<glyph unicode="&#x152;" horiz-adv-x="2117" d="M2013 10q0 16 2 45t-18 35q-59 -4 -117.5 -7t-118.5 -3q-86 0 -171 1t-171 1v629h307h27q20 0 44 -1t44.5 -3t28.5 -5q18 0 18 17v55l-16 17h-453v575h297q66 0 129.5 -4t128.5 -4q16 0 17 16v56l-17 16h-626l-17 -16v-269q-43 84 -103.5 141.5t-133 91t-156.5 48 t-174 14.5q-172 0 -297 -51t-206 -144.5t-120 -226.5t-39 -297q0 -158 40 -295t122 -238.5t207 -158.5t293 -57q184 0 332.5 84t234.5 250v-306l17 -16q164 0 324.5 1t324.5 -7zM1331 737q0 -133 -33.5 -255t-103.5 -215t-176.5 -148.5t-253.5 -55.5q-145 0 -253 55.5 t-178.5 148.5t-105 215t-34.5 255q0 141 31.5 259t101 204t177 133t261.5 47t261.5 -47t175 -133t99 -204t31.5 -259z" />
<glyph unicode="&#x153;" horiz-adv-x="1830" d="M1729 516q0 90 -17.5 174t-58.5 149.5t-110.5 105.5t-176.5 40q-131 0 -238.5 -57.5t-160.5 -182.5q-29 55 -74 99.5t-99.5 75t-115 48t-121.5 17.5q-121 0 -207 -35t-141 -99.5t-81 -155.5t-26 -206q0 -109 28 -200.5t85 -158.5t143 -104.5t201 -37.5q135 0 244.5 62.5 t163.5 191.5q45 -135 158.5 -194.5t250.5 -59.5q72 0 156 20.5t149 54.5l9 15q0 6 1 18.5t0 24.5t-4.5 22.5t-11.5 10.5q-4 0 -30.5 -14.5t-68.5 -32t-94 -32t-108 -14.5q-98 0 -165.5 32t-111.5 88.5t-64.5 134t-22.5 167.5q178 4 352 6.5t350 10.5zM1645 575h-3 q-158 0 -315.5 -8t-316.5 -8q0 76 27.5 140.5t76.5 111.5t114.5 73.5t141.5 26.5q74 0 125 -28.5t84 -74.5t48.5 -108t17.5 -125zM928 489h-2q0 -86 -22.5 -163.5t-67.5 -136t-115 -93.5t-164 -35t-163.5 34t-116 92.5t-69 136t-22.5 165.5q0 90 21.5 168t66.5 134.5t116 88 t169 31.5t168 -31.5t115 -88t65.5 -134.5t20.5 -168z" />
<glyph unicode="&#x178;" horiz-adv-x="1046" d="M750 1532v92l-15 16h-88l-16 -16v-92l16 -16h88zM397 1532v92l-14 16h-88l-16 -16v-92l16 -16h88zM944 1436q0 4 -6 7t-10 3h-54l-14 -10l-170 -366l-170 -365l-327 731l-15 10q-4 0 -16 1t-25.5 0t-24 -3t-10.5 -8t25 -64l62 -141l84 -183l87 -190l72 -158 q31 -68 41 -88v-596l14 -16h60l16 16v600l40 83l74 156l89 188l87 186l66 143q25 58 25 64z" />
<glyph unicode="&#x2c6;" horiz-adv-x="1054" d="M952 1147q0 4 -24 31l-62 64l-81 81l-84 83l-70 69q-31 29 -39 36q-4 4 -12 5h-105l-369 -357l-4 -12q0 -16 19 -17h55l352 328l353 -328q16 0 40.5 -1.5t30.5 18.5z" />
<glyph unicode="&#x2dc;" horiz-adv-x="1077" d="M975 1346l-25 38l-12 9q-6 0 -20.5 -14.5t-37 -33t-54 -33t-74.5 -14.5q-53 0 -103.5 15.5t-101.5 33t-102.5 33t-104.5 15.5q-16 0 -55 -11.5t-79 -28t-72 -38t-32 -39.5q0 -4 5.5 -13.5t11.5 -18.5t12 -16t8 -7q8 0 26.5 15t44.5 33.5t59.5 34t70.5 15.5 q51 0 103.5 -14.5t102.5 -33t101 -32.5t105 -14q59 0 119.5 28.5t101.5 69.5z" />
<glyph unicode="&#x2000;" horiz-adv-x="1013" />
<glyph unicode="&#x2001;" horiz-adv-x="2027" />
<glyph unicode="&#x2002;" horiz-adv-x="1013" />
<glyph unicode="&#x2003;" horiz-adv-x="2027" />
<glyph unicode="&#x2004;" horiz-adv-x="675" />
<glyph unicode="&#x2005;" horiz-adv-x="505" />
<glyph unicode="&#x2006;" horiz-adv-x="337" />
<glyph unicode="&#x2007;" horiz-adv-x="337" />
<glyph unicode="&#x2008;" horiz-adv-x="251" />
<glyph unicode="&#x2009;" horiz-adv-x="405" />
<glyph unicode="&#x200a;" horiz-adv-x="112" />
<glyph unicode="&#x2010;" horiz-adv-x="641" d="M539 641v47l-19 17h-401l-17 -17v-47l19 -16h401z" />
<glyph unicode="&#x2011;" horiz-adv-x="641" d="M539 641v47l-19 17h-401l-17 -17v-47l19 -16h401z" />
<glyph unicode="&#x2012;" horiz-adv-x="641" d="M539 641v47l-19 17h-401l-17 -17v-47l19 -16h401z" />
<glyph unicode="&#x2013;" horiz-adv-x="835" d="M733 723v47l-14 16h-602l-15 -16v-47l15 -16h602z" />
<glyph unicode="&#x2014;" horiz-adv-x="1439" d="M1337 723v47l-18 16h-1200l-17 -16v-47l19 -16h1200z" />
<glyph unicode="&#x2018;" horiz-adv-x="403" d="M301 1559q0 16 -18 16h-37l-15 -12q-2 -8 -12 -43l-24 -82l-31 -100l-30 -97l-22 -75q-9 -30 -10 -31q0 -14 19 -15h72l16 10l9 46l18 80l22 98l22 95l15 75q6 31 6 35z" />
<glyph unicode="&#x2019;" horiz-adv-x="440" d="M338 1569q0 14 -16 14h-72l-17 -12q-2 -8 -13 -44l-25 -83l-31 -102l-30 -99l-22 -76q-9 -31 -10 -32q0 -6 6.5 -10.5t12.5 -4.5h37l14 10q4 8 17 45l32 83l39 102l38 99l29 77q11 31 11 33z" />
<glyph unicode="&#x201a;" horiz-adv-x="440" d="M338 240q0 16 -16 16h-72l-17 -12q-2 -8 -13 -44l-25 -83l-31 -102l-30 -99l-22 -76q-9 -31 -10 -33q0 -6 6.5 -10t12.5 -4h37l14 10q4 8 17 44l32 83l39 102l38 99l29 76q11 31 11 33z" />
<glyph unicode="&#x201c;" horiz-adv-x="608" d="M506 1552q0 16 -17 17h-36l-15 -13q-2 -8 -13 -42l-27 -79l-31 -99l-31 -96l-24 -74q-9 -30 -9 -31q0 -14 16 -15h72l17 10l10 44l19 79q11 45 22.5 97.5l21.5 95.5l18 73q7 29 7 33zM305 1552q0 16 -16 17h-35l-16 -13q-2 -8 -14 -42l-26 -79l-32 -99l-31 -96l-23 -74 q-9 -30 -10 -31q0 -14 17 -15h71l17 10l10 44l20 79q11 45 22 97.5t22 95.5l17 73q7 29 7 33z" />
<glyph unicode="&#x201d;" horiz-adv-x="620" d="M518 1565q0 16 -18 16h-72l-16 -12l-12 -43q-9 -35 -20 -82t-26 -101l-25 -98l-19 -76q-7 -31 -7 -32q0 -16 19 -17h34l17 10q2 8 14 44l29 82l34 102l32 98l26 76q10 31 10 33zM317 1565q0 16 -18 16h-72l-16 -12l-11 -43l-20.5 -82l-25.5 -101l-26 -98l-18 -76 q-7 -31 -8 -32q0 -16 19 -17h37l16 10q2 8 14.5 43t27.5 83l34 102l33 98l24 76q10 31 10 33z" />
<glyph unicode="&#x201e;" horiz-adv-x="620" d="M518 231q0 16 -18 17h-72l-16 -12l-12 -43q-9 -35 -20 -82.5t-26 -100.5l-25 -98l-19 -76q-7 -31 -7 -33q0 -16 19 -16h34l17 10q2 8 14 44l29 83l35 101l32 98l25 76q10 30 10 32zM317 231q0 16 -18 17h-72l-16 -12l-11 -43l-20.5 -82.5l-25.5 -100.5l-26 -98l-18 -76 q-7 -31 -8 -33q0 -16 19 -16h37l16 10q2 8 14 44l28 83l34 101l33 98l24 76q10 30 10 32z" />
<glyph unicode="&#x2022;" horiz-adv-x="526" d="M424 711q0 68 -47 114.5t-115 46.5t-114 -47t-46 -114q0 -70 46.5 -115t115.5 -45q68 0 114 46t46 114z" />
<glyph unicode="&#x2026;" horiz-adv-x="1394" d="M1292 4v98l-16 17h-96l-17 -17v-98l19 -16h96zM760 4v98l-17 17h-94l-16 -17v-98l18 -16h94zM229 4v98l-16 17h-96l-15 -17v-98l17 -16h96z" />
<glyph unicode="&#x202f;" horiz-adv-x="405" />
<glyph unicode="&#x2039;" horiz-adv-x="614" d="M512 426l-6 16l-320 308l320 301l6 16l-14 51l-17 12q-6 0 -32 -24l-65 -62l-83 -80l-84 -84l-69 -71q-30 -31 -39 -39l-5 -10q-2 -8 -1 -18.5t6 -16.5l358 -356l12 -7q8 0 14.5 8.5t9.5 19.5t5 21.5t4 14.5z" />
<glyph unicode="&#x203a;" horiz-adv-x="616" d="M514 737v23l-6 10l-361 354l-12 6q-16 -2 -22.5 -26.5t-10.5 -36.5l9 -16l323 -303l-325 -306l-5 -18l21 -49l14 -10q4 0 31 24l64 62l83 81l85 85l70 70l38 38q0 4 2 6t2 6z" />
<glyph unicode="&#x205f;" horiz-adv-x="505" />
<glyph unicode="&#x20ac;" horiz-adv-x="1452" d="M1348 90q0 4 1 15.5t0 23.5t-4.5 21.5t-9.5 9.5t-10 -2l-219 -65q-104 -30 -225 -30q-233 0 -384 124t-198 352h911l15 16v49l-15 17h-925q-6 57 -6 116q0 66 6 131h925l15 17v49l-15 16h-911q25 115 76 197t125.5 134t171 75.5t209.5 23.5q115 0 209 -22.5t200 -57.5 q4 -2 6 -1t7 1q12 0 12 15v63l-10 13q-102 41 -209 53t-215 12q-133 0 -246 -27.5t-200 -88t-145.5 -157t-82.5 -233.5h-90l-15 -16v-49l15 -17h78q-12 -125 0 -247h-78l-15 -17v-49l15 -16h88q47 -274 223 -412.5t453 -138.5q47 0 108.5 6t124 17.5t121.5 27.5t102 37z" />
<glyph unicode="&#x2122;" horiz-adv-x="1554" d="M1452 723v707l-14 16h-64l-14 -8l-151 -294l-152 -294l-320 588l-12 8h-55l-17 -16v-707l17 -16h53l14 16v555l291 -563l14 -8h23l14 8l289 573v-565l16 -16h54zM625 1376v54l-17 16h-489l-15 -16q0 -6 -1 -18.5t-1 -25.5q0 -10 4.5 -18t14.5 -8q49 0 99 3t99 3v-643 l17 -16h51l16 16v643h78q6 0 30 -2t49.5 -3t45 2t19.5 13z" />
<glyph unicode="&#xe000;" horiz-adv-x="975" d="M0 975h975v-975h-975v975z" />
<glyph unicode="&#xfb01;" horiz-adv-x="1144" d="M1042 1219v79l-16 17h-82l-15 -17v-79l17 -15h82zM1028 16v938l-17 17h-53l-16 -17v-938l18 -16h53zM725 1393v67l-10 15q-37 18 -88.5 25t-91.5 7q-129 0 -189.5 -53t-83.5 -136q-20 -73 -20 -160q0 -12 1 -23q3 -100 3 -195h-127l-17 -16v-45l19 -17h125v-846l16 -16 h51l17 16v846h344l16 17v45l-18 16h-344v238q0 55 10 101t33.5 81t63.5 54.5t102 19.5q39 0 85 -12.5t76 -39.5z" />
<glyph unicode="&#xfb02;" horiz-adv-x="1499" d="M1394 41q0 5 0.5 20.5t0.5 25.5q0 24 -15 30q-4 0 -14.5 -8.5t-26.5 -19.5t-42 -19.5t-62 -8.5q-84 0 -129.5 47.5t-65.5 116t-24.5 145t-4.5 136.5q0 260 1 517t1 517l-16 16h-53l-15 -16v-1034q0 -84 7.5 -176t37 -168t91 -125t170.5 -49q37 0 78.5 9t72.5 30z M725 1393v67l-10 15q-37 18 -88.5 25t-91.5 7q-129 0 -189.5 -53t-83.5 -136q-20 -73 -20 -160q0 -12 1 -23q3 -100 3 -195h-127l-17 -16v-45l19 -17h125v-846l16 -16h51l17 16v846h344l16 17v45l-18 16h-344v238q0 55 10 101t33.5 81t63.5 54.5t102 19.5q39 0 85 -12.5 t76 -39.5z" />
<glyph unicode="&#xfb03;" horiz-adv-x="1972" d="M1870 1219v79l-16 17h-82l-15 -17v-79l17 -15h82zM1856 16v938l-17 17h-53l-16 -17v-938l18 -16h53zM1552 1393v67l-10 15q-37 18 -88.5 25t-91.5 7q-129 0 -189.5 -53t-83.5 -136q-20 -73 -20 -160q0 -12 1 -23q3 -100 3 -195h-127l-17 -16v-45l19 -17h125v-846l16 -16 h51l17 16v846h344l16 17v45l-18 16h-344v238q0 55 10 101t33.5 81t63.5 54.5t102 19.5q39 0 85 -12.5t76 -39.5zM725 1393v67l-10 15q-37 18 -88.5 25t-91.5 7q-129 0 -189.5 -53t-83.5 -136q-20 -73 -20 -160q0 -12 1 -23q3 -100 3 -195h-127l-17 -16v-45l19 -17h125v-846 l16 -16h51l17 16v846h344l16 17v45l-18 16h-344v238q0 55 10 101t33.5 81t63.5 54.5t102 19.5q39 0 85 -12.5t76 -39.5z" />
<glyph unicode="&#xfb04;" horiz-adv-x="2326" d="M2222 41q0 5 0.5 20.5t0.5 25.5q0 24 -15 30q-4 0 -14.5 -8.5t-26.5 -19.5t-42 -19.5t-62 -8.5q-84 0 -129.5 47.5t-65.5 116t-24.5 145t-4.5 136.5q0 260 1 517t1 517l-16 16h-53l-15 -16v-1034q0 -84 7.5 -176t37 -168t91 -125t170.5 -49q37 0 78.5 9t72.5 30z M1552 1393v67l-10 15q-37 18 -88.5 25t-91.5 7q-129 0 -189.5 -53t-83.5 -136q-20 -73 -20 -160q0 -12 1 -23q3 -100 3 -195h-127l-17 -16v-45l19 -17h125v-846l16 -16h51l17 16v846h344l16 17v45l-18 16h-344v238q0 55 10 101t33.5 81t63.5 54.5t102 19.5q39 0 85 -12.5 t76 -39.5zM725 1393v67l-10 15q-37 18 -88.5 25t-91.5 7q-129 0 -189.5 -53t-83.5 -136q-20 -73 -20 -160q0 -12 1 -23q3 -100 3 -195h-127l-17 -16v-45l19 -17h125v-846l16 -16h51l17 16v846h344l16 17v45l-18 16h-344v238q0 55 10 101t33.5 81t63.5 54.5t102 19.5 q39 0 85 -12.5t76 -39.5z" />
</font>
</defs>
</svg>
